<svg xmlns:ev="http://www.w3.org/2001/xml-events" height="1534" width="2780" viewBox="0 0 2780 1534" xmlns="http://www.w3.org/2000/svg" xmlns:xlink="http://www.w3.org/1999/xlink"><defs/><g transform="translate(5.5,5.5)" id="page1"><rect height="1524" width="2770" x="0" fill="#ffffff" y="0"/><path d="M.0,.0L378.0,.0L378.0,269.0L.0,269.0L.0,.0z" stroke="#000000" transform="translate(1200.000000,930.000000)" fill-rule="nonzero" id="shape1" fill="#ffffff" stroke-width="1"/><path stroke="#4285f4" d="M.0,.0L2691.8,.0L2691.8,1445.1L.0,1445.1L.0,.0z" transform="translate(39.180000,39.000000)" id="shape2" fill="none" stroke-width="2.666670083999634"/><path stroke="#4285f4" d="M.0,.0L186.1,.0L186.1,373.2L.0,373.2L.0,.0z" stroke-dasharray="6,4" transform="translate(64.302600,891.796000)" id="shape3" fill="none" stroke-width="2.666670083999634"/><g transform="translate(103.468800,900.347300)" id="group4"><path d="M108.3,44.3L85.8,5.0C84.0,2.0,80.8,.0,77.3,.0L32.3,.0C28.8,.0,25.6,2.0,23.8,5.0L1.3,44.2C-0.4,47.2,-0.4,50.9,1.3,54.0L23.8,93.4C25.5,96.5,28.7,98.5,32.3,98.6L77.3,98.6C80.8,98.5,84.0,96.5,85.8,93.4L108.3,54.2C110.0,51.1,110.0,47.3,108.3,44.3z" fill-rule="nonzero" id="shape5" fill="#4285f4"/><path d="M68.0,37.1L30.9,.0L28.3,5.8L22.5,.0L19.8,5.7L14.1,.0L12.7,6.9L7.6,7.8L6.6,12.3L.0,13.9L5.9,19.8L.0,22.4L5.9,28.2L.0,30.8L39.5,70.3L43.5,70.3C47.0,70.2,50.2,68.2,52.0,65.1L68.0,37.1z" transform="translate(33.805700,28.294900)" fill-rule="nonzero" id="shape6" fill="#3d7ce3"/><path d="M10.8,.0L1.0,.0C.5,.0,.0,.5,.0,1.0L.0,10.8C.0,11.4,.5,11.9,1.0,11.9L10.8,11.9C11.4,11.8,11.8,11.4,11.8,10.8L11.8,1.0C11.8,.5,11.3,.0,10.8,.0" transform="translate(48.891170,43.381350)" fill-rule="nonzero" id="shape7" fill="#ffffff"/><path d="M41.6,14.6C41.9,14.6,42.1,14.5,42.3,14.3C42.5,14.2,42.6,13.9,42.6,13.7L42.6,12.1C42.6,11.6,42.2,11.2,41.6,11.2L36.9,11.2L36.9,6.7C36.9,6.2,36.4,5.7,35.8,5.7L31.4,5.7L31.4,.9C31.4,.4,31.0,.0,30.4,.0L28.9,.0C28.4,.0,28.0,.4,28.0,.9L28.0,5.7L23.0,5.7L23.0,.9C23.0,.7,22.9,.4,22.7,.3C22.5,.1,22.3,.0,22.0,.0L20.5,.0C20.0,.0,19.6,.4,19.6,.9L19.6,5.7L14.6,5.7L14.6,.9C14.6,.4,14.2,.0,13.6,.0L12.1,.0C11.6,.0,11.2,.4,11.2,.9L11.2,5.7L6.7,5.7C6.2,5.7,5.7,6.2,5.7,6.7L5.7,11.2L.9,11.2C.4,11.2,.0,11.6,.0,12.1L.0,13.6C.0,14.1,.4,14.6,.9,14.6L5.7,14.6L5.7,19.6L.9,19.6C.4,19.6,.0,20.0,.0,20.5L.0,22.1C.0,22.3,.1,22.6,.3,22.7C.4,22.9,.7,23.0,.9,23.0L5.7,23.0L5.7,28.0L.9,28.0C.4,28.0,.0,28.5,.0,29.0L.0,30.5C.0,31.0,.4,31.4,.9,31.4L5.7,31.4L5.7,35.9C5.7,36.4,6.2,36.9,6.7,36.9L11.2,36.9L11.2,41.7C11.2,42.2,11.6,42.6,12.1,42.6L13.6,42.6C14.2,42.6,14.6,42.2,14.6,41.7L14.6,36.9L19.6,36.9L19.6,41.7C19.6,42.2,20.0,42.6,20.5,42.6L22.0,42.6C22.5,42.6,23.0,42.2,23.0,41.7L23.0,36.9L28.0,36.9L28.0,41.7C28.0,42.2,28.4,42.6,29.0,42.6L30.5,42.6C31.0,42.6,31.4,42.2,31.4,41.7L31.4,36.9L35.9,36.9C36.4,36.9,36.9,36.4,36.9,35.9L36.9,31.4L41.6,31.4C41.9,31.4,42.1,31.3,42.3,31.2C42.5,31.0,42.6,30.7,42.6,30.5L42.6,29.0C42.6,28.4,42.2,28.0,41.6,28.0L36.9,28.0L36.9,23.0L41.6,23.0C41.9,23.0,42.1,22.9,42.3,22.7C42.5,22.6,42.6,22.3,42.6,22.1L42.6,20.6C42.6,20.3,42.5,20.0,42.3,19.9C42.1,19.7,41.9,19.6,41.6,19.6L36.9,19.6L36.9,14.6L41.6,14.6zM33.4,33.5L9.2,33.5L9.2,9.2L33.4,9.2L33.4,33.5z" transform="translate(33.617300,28.003400)" fill-rule="nonzero" id="shape8" fill="#ffffff"/><text style="fill:#191919;font-family:Microsoft YaHei;font-size:18.00pt" xml:space="preserve"><tspan x="14.9" y="136.6">GitHub</tspan></text></g><g transform="translate(428.640800,1060.325300)" id="group9"><path d="M108.3,44.3L85.8,5.0C84.0,2.0,80.8,.0,77.3,.0L32.3,.0C28.8,.0,25.6,2.0,23.8,5.0L1.3,44.2C-0.4,47.2,-0.4,50.9,1.3,54.0L23.8,93.4C25.5,96.5,28.7,98.5,32.3,98.6L77.3,98.6C80.8,98.5,84.0,96.5,85.8,93.4L108.3,54.2C110.0,51.1,110.0,47.3,108.3,44.3z" fill-rule="nonzero" id="shape10" fill="#4285f4"/><path d="M68.0,37.1L30.9,.0L28.3,5.8L22.5,.0L19.8,5.7L14.1,.0L12.7,6.9L7.6,7.8L6.6,12.3L.0,13.9L5.9,19.8L.0,22.4L5.9,28.2L.0,30.8L39.5,70.3L43.5,70.3C47.0,70.2,50.2,68.2,52.0,65.1L68.0,37.1z" transform="translate(33.805700,28.294900)" fill-rule="nonzero" id="shape11" fill="#3d7ce3"/><path d="M10.8,.0L1.0,.0C.5,.0,.0,.5,.0,1.0L.0,10.8C.0,11.4,.5,11.9,1.0,11.9L10.8,11.9C11.4,11.8,11.8,11.4,11.8,10.8L11.8,1.0C11.8,.5,11.3,.0,10.8,.0" transform="translate(48.891170,43.381350)" fill-rule="nonzero" id="shape12" fill="#ffffff"/><path d="M41.6,14.6C41.9,14.6,42.1,14.5,42.3,14.3C42.5,14.2,42.6,13.9,42.6,13.7L42.6,12.1C42.6,11.6,42.2,11.2,41.6,11.2L36.9,11.2L36.9,6.7C36.9,6.2,36.4,5.7,35.8,5.7L31.4,5.7L31.4,.9C31.4,.4,31.0,.0,30.4,.0L28.9,.0C28.4,.0,28.0,.4,28.0,.9L28.0,5.7L23.0,5.7L23.0,.9C23.0,.7,22.9,.4,22.7,.3C22.5,.1,22.3,.0,22.0,.0L20.5,.0C20.0,.0,19.6,.4,19.6,.9L19.6,5.7L14.6,5.7L14.6,.9C14.6,.4,14.2,.0,13.6,.0L12.1,.0C11.6,.0,11.2,.4,11.2,.9L11.2,5.7L6.7,5.7C6.2,5.7,5.7,6.2,5.7,6.7L5.7,11.2L.9,11.2C.4,11.2,.0,11.6,.0,12.1L.0,13.6C.0,14.1,.4,14.6,.9,14.6L5.7,14.6L5.7,19.6L.9,19.6C.4,19.6,.0,20.0,.0,20.5L.0,22.1C.0,22.3,.1,22.6,.3,22.7C.4,22.9,.7,23.0,.9,23.0L5.7,23.0L5.7,28.0L.9,28.0C.4,28.0,.0,28.5,.0,29.0L.0,30.5C.0,31.0,.4,31.4,.9,31.4L5.7,31.4L5.7,35.9C5.7,36.4,6.2,36.9,6.7,36.9L11.2,36.9L11.2,41.7C11.2,42.2,11.6,42.6,12.1,42.6L13.6,42.6C14.2,42.6,14.6,42.2,14.6,41.7L14.6,36.9L19.6,36.9L19.6,41.7C19.6,42.2,20.0,42.6,20.5,42.6L22.0,42.6C22.5,42.6,23.0,42.2,23.0,41.7L23.0,36.9L28.0,36.9L28.0,41.7C28.0,42.2,28.4,42.6,29.0,42.6L30.5,42.6C31.0,42.6,31.4,42.2,31.4,41.7L31.4,36.9L35.9,36.9C36.4,36.9,36.9,36.4,36.9,35.9L36.9,31.4L41.6,31.4C41.9,31.4,42.1,31.3,42.3,31.2C42.5,31.0,42.6,30.7,42.6,30.5L42.6,29.0C42.6,28.4,42.2,28.0,41.6,28.0L36.9,28.0L36.9,23.0L41.6,23.0C41.9,23.0,42.1,22.9,42.3,22.7C42.5,22.6,42.6,22.3,42.6,22.1L42.6,20.6C42.6,20.3,42.5,20.0,42.3,19.9C42.1,19.7,41.9,19.6,41.6,19.6L36.9,19.6L36.9,14.6L41.6,14.6zM33.4,33.5L9.2,33.5L9.2,9.2L33.4,9.2L33.4,33.5z" transform="translate(33.617300,28.003400)" fill-rule="nonzero" id="shape13" fill="#ffffff"/><text style="fill:#191919;font-family:Microsoft YaHei;font-size:18.00pt" xml:space="preserve"><tspan x="-15.1" y="136.6">EventSource</tspan></text></g><g transform="translate(64.302600,1202.707100)" id="shape14"><path d="M.0,.0L186.1,.0L186.1,65.4L.0,65.4L.0,.0z" stroke="#323232" fill-rule="nonzero" fill="#ffffff" stroke-width="1"/><text style="fill:#191919;font-family:Microsoft YaHei;font-size:18.00pt" xml:space="preserve"><tspan x="29.5" y="43.0">Code Repo</tspan></text></g><g transform="translate(283.460000,1202.712400)" id="shape15"><path d="M.0,.0L2203.5,.0L2203.5,62.3L.0,62.3L.0,.0z" stroke="#323232" fill-rule="nonzero" fill="#ffffff" stroke-width="1"/><text style="fill:#191919;font-family:Microsoft YaHei;font-size:18.00pt" xml:space="preserve"><tspan x="1036.7" y="41.2">Kubernetes</tspan></text></g><g transform="translate(132.262000,1380.190000)" id="group16"><path d="M51.5,55.6C51.2,51.7,50.3,43.5,49.6,39.8C48.7,35.9,47.7,32.6,43.5,30.5C40.0,28.9,38.3,28.3,36.8,28.3C36.2,28.3,35.6,28.4,35.1,28.6C35.0,28.0,34.8,27.5,34.7,27.1C37.9,24.2,39.8,20.0,39.8,15.2C39.8,6.9,33.6,.0,25.8,.0C18.1,.0,11.9,6.9,11.9,15.2C11.9,19.9,13.7,23.9,16.7,26.8C16.4,27.4,16.3,27.8,16.1,28.4C15.8,28.3,15.4,28.3,14.9,28.3C13.4,28.3,11.6,28.9,8.2,30.5C4.4,32.4,3.0,35.1,2.1,39.8C1.4,43.5,.5,51.6,.2,55.6L.0,58.0L52.0,58.0L51.5,55.6z" fill-rule="nonzero" id="shape17" fill="#ffffff"/><path d="M.0,53.5C.3,49.6,1.2,41.6,2.0,38.0C2.9,33.9,3.8,31.7,6.8,30.2C9.9,28.7,11.4,28.1,12.5,28.1C13.4,28.1,14.0,28.6,14.6,29.1C14.7,29.1,14.7,29.3,14.9,29.4C17.8,32.0,20.7,32.6,23.6,32.6C26.5,32.6,29.3,32.0,32.2,29.4C32.4,29.3,32.4,29.3,32.5,29.1C33.1,28.6,33.8,28.1,34.7,28.1C35.7,28.1,37.4,28.7,40.3,30.2C43.3,31.7,44.2,33.9,45.2,38.0C45.9,41.6,46.8,49.6,47.1,53.5L.0,53.5zM23.6,26.0C17.0,26.0,11.9,20.2,11.9,13.0C11.9,5.8,17.2,.0,23.6,.0C30.1,.0,35.3,5.8,35.3,13.0C35.3,20.2,30.1,26.0,23.6,26.0z" transform="translate(2.128600,2.242300)" fill-rule="nonzero" id="shape18" fill="#515150"/><text style="fill:#191919;font-family:Microsoft YaHei;font-size:18.00pt" xml:space="preserve"><tspan x="-31.9" y="80.0">Developer</tspan></text></g><path stroke="#4285f4" d="M.0,.0L2203.5,.0L2203.5,815.5L.0,815.5L.0,.0z" stroke-dasharray="6,4" transform="translate(283.460000,449.479000)" id="shape19" fill="none" stroke-width="2.666670083999634"/><g transform="translate(103.468800,1058.325300)" id="group20"><path d="M108.3,44.3L85.8,5.0C84.0,2.0,80.8,.0,77.3,.0L32.3,.0C28.8,.0,25.6,2.0,23.8,5.0L1.3,44.2C-0.4,47.2,-0.4,50.9,1.3,54.0L23.8,93.4C25.5,96.5,28.7,98.5,32.3,98.6L77.3,98.6C80.8,98.5,84.0,96.5,85.8,93.4L108.3,54.2C110.0,51.1,110.0,47.3,108.3,44.3z" fill-rule="nonzero" id="shape21" fill="#4285f4"/><path d="M68.0,37.1L30.9,.0L28.3,5.8L22.5,.0L19.8,5.7L14.1,.0L12.7,6.9L7.6,7.8L6.6,12.3L.0,13.9L5.9,19.8L.0,22.4L5.9,28.2L.0,30.8L39.5,70.3L43.5,70.3C47.0,70.2,50.2,68.2,52.0,65.1L68.0,37.1z" transform="translate(33.805700,28.294900)" fill-rule="nonzero" id="shape22" fill="#3d7ce3"/><path d="M10.8,.0L1.0,.0C.5,.0,.0,.5,.0,1.0L.0,10.8C.0,11.4,.5,11.9,1.0,11.9L10.8,11.9C11.4,11.8,11.8,11.4,11.8,10.8L11.8,1.0C11.8,.5,11.3,.0,10.8,.0" transform="translate(48.891170,43.381350)" fill-rule="nonzero" id="shape23" fill="#ffffff"/><path d="M41.6,14.6C41.9,14.6,42.1,14.5,42.3,14.3C42.5,14.2,42.6,13.9,42.6,13.7L42.6,12.1C42.6,11.6,42.2,11.2,41.6,11.2L36.9,11.2L36.9,6.7C36.9,6.2,36.4,5.7,35.8,5.7L31.4,5.7L31.4,.9C31.4,.4,31.0,.0,30.4,.0L28.9,.0C28.4,.0,28.0,.4,28.0,.9L28.0,5.7L23.0,5.7L23.0,.9C23.0,.7,22.9,.4,22.7,.3C22.5,.1,22.3,.0,22.0,.0L20.5,.0C20.0,.0,19.6,.4,19.6,.9L19.6,5.7L14.6,5.7L14.6,.9C14.6,.4,14.2,.0,13.6,.0L12.1,.0C11.6,.0,11.2,.4,11.2,.9L11.2,5.7L6.7,5.7C6.2,5.7,5.7,6.2,5.7,6.7L5.7,11.2L.9,11.2C.4,11.2,.0,11.6,.0,12.1L.0,13.6C.0,14.1,.4,14.6,.9,14.6L5.7,14.6L5.7,19.6L.9,19.6C.4,19.6,.0,20.0,.0,20.5L.0,22.1C.0,22.3,.1,22.6,.3,22.7C.4,22.9,.7,23.0,.9,23.0L5.7,23.0L5.7,28.0L.9,28.0C.4,28.0,.0,28.5,.0,29.0L.0,30.5C.0,31.0,.4,31.4,.9,31.4L5.7,31.4L5.7,35.9C5.7,36.4,6.2,36.9,6.7,36.9L11.2,36.9L11.2,41.7C11.2,42.2,11.6,42.6,12.1,42.6L13.6,42.6C14.2,42.6,14.6,42.2,14.6,41.7L14.6,36.9L19.6,36.9L19.6,41.7C19.6,42.2,20.0,42.6,20.5,42.6L22.0,42.6C22.5,42.6,23.0,42.2,23.0,41.7L23.0,36.9L28.0,36.9L28.0,41.7C28.0,42.2,28.4,42.6,29.0,42.6L30.5,42.6C31.0,42.6,31.4,42.2,31.4,41.7L31.4,36.9L35.9,36.9C36.4,36.9,36.9,36.4,36.9,35.9L36.9,31.4L41.6,31.4C41.9,31.4,42.1,31.3,42.3,31.2C42.5,31.0,42.6,30.7,42.6,30.5L42.6,29.0C42.6,28.4,42.2,28.0,41.6,28.0L36.9,28.0L36.9,23.0L41.6,23.0C41.9,23.0,42.1,22.9,42.3,22.7C42.5,22.6,42.6,22.3,42.6,22.1L42.6,20.6C42.6,20.3,42.5,20.0,42.3,19.9C42.1,19.7,41.9,19.6,41.6,19.6L36.9,19.6L36.9,14.6L41.6,14.6zM33.4,33.5L9.2,33.5L9.2,9.2L33.4,9.2L33.4,33.5z" transform="translate(33.617300,28.003400)" fill-rule="nonzero" id="shape24" fill="#ffffff"/><text style="fill:#191919;font-family:Microsoft YaHei;font-size:18.00pt" xml:space="preserve"><tspan x="22.8" y="136.6">Other</tspan></text></g><path stroke="#4285f4" d="M.0,.0L186.1,.0L186.1,373.2L.0,373.2L.0,.0z" stroke-dasharray="6,4" transform="translate(65.216600,449.480000)" id="shape25" fill="none" stroke-width="2.666670083999634"/><g transform="translate(104.382800,460.029300)" id="group26"><path d="M108.3,44.3L85.8,5.0C84.0,2.0,80.8,.0,77.3,.0L32.3,.0C28.8,.0,25.6,2.0,23.8,5.0L1.3,44.2C-0.4,47.2,-0.4,50.9,1.3,54.0L23.8,93.4C25.5,96.5,28.7,98.5,32.3,98.6L77.3,98.6C80.8,98.5,84.0,96.5,85.8,93.4L108.3,54.2C110.0,51.1,110.0,47.3,108.3,44.3z" fill-rule="nonzero" id="shape27" fill="#4285f4"/><path d="M68.0,37.1L30.9,.0L28.3,5.8L22.5,.0L19.8,5.7L14.1,.0L12.7,6.9L7.6,7.8L6.6,12.3L.0,13.9L5.9,19.8L.0,22.4L5.9,28.2L.0,30.8L39.5,70.3L43.5,70.3C47.0,70.2,50.2,68.2,52.0,65.1L68.0,37.1z" transform="translate(33.805700,28.294900)" fill-rule="nonzero" id="shape28" fill="#3d7ce3"/><path d="M10.8,.0L1.0,.0C.5,.0,.0,.5,.0,1.0L.0,10.8C.0,11.4,.5,11.9,1.0,11.9L10.8,11.9C11.4,11.8,11.8,11.4,11.8,10.8L11.8,1.0C11.8,.5,11.3,.0,10.8,.0" transform="translate(48.891170,43.381350)" fill-rule="nonzero" id="shape29" fill="#ffffff"/><path d="M41.6,14.6C41.9,14.6,42.1,14.5,42.3,14.3C42.5,14.2,42.6,13.9,42.6,13.7L42.6,12.1C42.6,11.6,42.2,11.2,41.6,11.2L36.9,11.2L36.9,6.7C36.9,6.2,36.4,5.7,35.8,5.7L31.4,5.7L31.4,.9C31.4,.4,31.0,.0,30.4,.0L28.9,.0C28.4,.0,28.0,.4,28.0,.9L28.0,5.7L23.0,5.7L23.0,.9C23.0,.7,22.9,.4,22.7,.3C22.5,.1,22.3,.0,22.0,.0L20.5,.0C20.0,.0,19.6,.4,19.6,.9L19.6,5.7L14.6,5.7L14.6,.9C14.6,.4,14.2,.0,13.6,.0L12.1,.0C11.6,.0,11.2,.4,11.2,.9L11.2,5.7L6.7,5.7C6.2,5.7,5.7,6.2,5.7,6.7L5.7,11.2L.9,11.2C.4,11.2,.0,11.6,.0,12.1L.0,13.6C.0,14.1,.4,14.6,.9,14.6L5.7,14.6L5.7,19.6L.9,19.6C.4,19.6,.0,20.0,.0,20.5L.0,22.1C.0,22.3,.1,22.6,.3,22.7C.4,22.9,.7,23.0,.9,23.0L5.7,23.0L5.7,28.0L.9,28.0C.4,28.0,.0,28.5,.0,29.0L.0,30.5C.0,31.0,.4,31.4,.9,31.4L5.7,31.4L5.7,35.9C5.7,36.4,6.2,36.9,6.7,36.9L11.2,36.9L11.2,41.7C11.2,42.2,11.6,42.6,12.1,42.6L13.6,42.6C14.2,42.6,14.6,42.2,14.6,41.7L14.6,36.9L19.6,36.9L19.6,41.7C19.6,42.2,20.0,42.6,20.5,42.6L22.0,42.6C22.5,42.6,23.0,42.2,23.0,41.7L23.0,36.9L28.0,36.9L28.0,41.7C28.0,42.2,28.4,42.6,29.0,42.6L30.5,42.6C31.0,42.6,31.4,42.2,31.4,41.7L31.4,36.9L35.9,36.9C36.4,36.9,36.9,36.4,36.9,35.9L36.9,31.4L41.6,31.4C41.9,31.4,42.1,31.3,42.3,31.2C42.5,31.0,42.6,30.7,42.6,30.5L42.6,29.0C42.6,28.4,42.2,28.0,41.6,28.0L36.9,28.0L36.9,23.0L41.6,23.0C41.9,23.0,42.1,22.9,42.3,22.7C42.5,22.6,42.6,22.3,42.6,22.1L42.6,20.6C42.6,20.3,42.5,20.0,42.3,19.9C42.1,19.7,41.9,19.6,41.6,19.6L36.9,19.6L36.9,14.6L41.6,14.6zM33.4,33.5L9.2,33.5L9.2,9.2L33.4,9.2L33.4,33.5z" transform="translate(33.617300,28.003400)" fill-rule="nonzero" id="shape30" fill="#ffffff"/><text style="fill:#191919;font-family:Microsoft YaHei;font-size:18.00pt" xml:space="preserve"><tspan x="15.4" y="136.6">Harbor</tspan></text></g><g transform="translate(65.216600,760.391100)" id="shape31"><path d="M.0,.0L186.1,.0L186.1,65.4L.0,65.4L.0,.0z" stroke="#323232" fill-rule="nonzero" fill="#ffffff" stroke-width="1"/><text style="fill:#191919;font-family:Microsoft YaHei;font-size:18.00pt" xml:space="preserve"><tspan x="23.7" y="43.0">Image Repo</tspan></text></g><g transform="translate(104.382800,618.009300)" id="group32"><path d="M108.3,44.3L85.8,5.0C84.0,2.0,80.8,.0,77.3,.0L32.3,.0C28.8,.0,25.6,2.0,23.8,5.0L1.3,44.2C-0.4,47.2,-0.4,50.9,1.3,54.0L23.8,93.4C25.5,96.5,28.7,98.5,32.3,98.6L77.3,98.6C80.8,98.5,84.0,96.5,85.8,93.4L108.3,54.2C110.0,51.1,110.0,47.3,108.3,44.3z" fill-rule="nonzero" id="shape33" fill="#4285f4"/><path d="M68.0,37.1L30.9,.0L28.3,5.8L22.5,.0L19.8,5.7L14.1,.0L12.7,6.9L7.6,7.8L6.6,12.3L.0,13.9L5.9,19.8L.0,22.4L5.9,28.2L.0,30.8L39.5,70.3L43.5,70.3C47.0,70.2,50.2,68.2,52.0,65.1L68.0,37.1z" transform="translate(33.805700,28.294900)" fill-rule="nonzero" id="shape34" fill="#3d7ce3"/><path d="M10.8,.0L1.0,.0C.5,.0,.0,.5,.0,1.0L.0,10.8C.0,11.4,.5,11.9,1.0,11.9L10.8,11.9C11.4,11.8,11.8,11.4,11.8,10.8L11.8,1.0C11.8,.5,11.3,.0,10.8,.0" transform="translate(48.891170,43.381350)" fill-rule="nonzero" id="shape35" fill="#ffffff"/><path d="M41.6,14.6C41.9,14.6,42.1,14.5,42.3,14.3C42.5,14.2,42.6,13.9,42.6,13.7L42.6,12.1C42.6,11.6,42.2,11.2,41.6,11.2L36.9,11.2L36.9,6.7C36.9,6.2,36.4,5.7,35.8,5.7L31.4,5.7L31.4,.9C31.4,.4,31.0,.0,30.4,.0L28.9,.0C28.4,.0,28.0,.4,28.0,.9L28.0,5.7L23.0,5.7L23.0,.9C23.0,.7,22.9,.4,22.7,.3C22.5,.1,22.3,.0,22.0,.0L20.5,.0C20.0,.0,19.6,.4,19.6,.9L19.6,5.7L14.6,5.7L14.6,.9C14.6,.4,14.2,.0,13.6,.0L12.1,.0C11.6,.0,11.2,.4,11.2,.9L11.2,5.7L6.7,5.7C6.2,5.7,5.7,6.2,5.7,6.7L5.7,11.2L.9,11.2C.4,11.2,.0,11.6,.0,12.1L.0,13.6C.0,14.1,.4,14.6,.9,14.6L5.7,14.6L5.7,19.6L.9,19.6C.4,19.6,.0,20.0,.0,20.5L.0,22.1C.0,22.3,.1,22.6,.3,22.7C.4,22.9,.7,23.0,.9,23.0L5.7,23.0L5.7,28.0L.9,28.0C.4,28.0,.0,28.5,.0,29.0L.0,30.5C.0,31.0,.4,31.4,.9,31.4L5.7,31.4L5.7,35.9C5.7,36.4,6.2,36.9,6.7,36.9L11.2,36.9L11.2,41.7C11.2,42.2,11.6,42.6,12.1,42.6L13.6,42.6C14.2,42.6,14.6,42.2,14.6,41.7L14.6,36.9L19.6,36.9L19.6,41.7C19.6,42.2,20.0,42.6,20.5,42.6L22.0,42.6C22.5,42.6,23.0,42.2,23.0,41.7L23.0,36.9L28.0,36.9L28.0,41.7C28.0,42.2,28.4,42.6,29.0,42.6L30.5,42.6C31.0,42.6,31.4,42.2,31.4,41.7L31.4,36.9L35.9,36.9C36.4,36.9,36.9,36.4,36.9,35.9L36.9,31.4L41.6,31.4C41.9,31.4,42.1,31.3,42.3,31.2C42.5,31.0,42.6,30.7,42.6,30.5L42.6,29.0C42.6,28.4,42.2,28.0,41.6,28.0L36.9,28.0L36.9,23.0L41.6,23.0C41.9,23.0,42.1,22.9,42.3,22.7C42.5,22.6,42.6,22.3,42.6,22.1L42.6,20.6C42.6,20.3,42.5,20.0,42.3,19.9C42.1,19.7,41.9,19.6,41.6,19.6L36.9,19.6L36.9,14.6L41.6,14.6zM33.4,33.5L9.2,33.5L9.2,9.2L33.4,9.2L33.4,33.5z" transform="translate(33.617300,28.003400)" fill-rule="nonzero" id="shape36" fill="#ffffff"/><text style="fill:#191919;font-family:Microsoft YaHei;font-size:18.00pt" xml:space="preserve"><tspan x="22.8" y="128.6">Other</tspan></text></g><g transform="translate(158.262000,1380.190000)" id="shape37"><path stroke="#323232" d="M.0,.0L.0,-106.6" fill="none" stroke-width="1"/><path stroke-linecap="round" stroke="#323232" d="M.0,-111.0L-3.0,-105.8C-2.1,-106.3,-1.1,-106.6,.0,-106.6C1.1,-106.6,2.1,-106.3,3.0,-105.8L.0,-111.0" fill="#323232" stroke-width="1"/><rect height="32.0" width="93.7" x="-45.9" fill="#ffffff" y="-70.0"/><text style="fill:#191919;font-family:Microsoft YaHei;font-size:18.00pt" xml:space="preserve"><tspan x="-45.9" y="-44.0">git push</tspan></text></g><g transform="translate(655.411800,1060.325300)" id="group38"><path d="M108.3,44.3L85.8,5.0C84.0,2.0,80.8,.0,77.3,.0L32.3,.0C28.8,.0,25.6,2.0,23.8,5.0L1.3,44.2C-0.4,47.2,-0.4,50.9,1.3,54.0L23.8,93.4C25.5,96.5,28.7,98.5,32.3,98.6L77.3,98.6C80.8,98.5,84.0,96.5,85.8,93.4L108.3,54.2C110.0,51.1,110.0,47.3,108.3,44.3z" fill-rule="nonzero" id="shape39" fill="#4285f4"/><path d="M68.0,37.1L30.9,.0L28.3,5.8L22.5,.0L19.8,5.7L14.1,.0L12.7,6.9L7.6,7.8L6.6,12.3L.0,13.9L5.9,19.8L.0,22.4L5.9,28.2L.0,30.8L39.5,70.3L43.5,70.3C47.0,70.2,50.2,68.2,52.0,65.1L68.0,37.1z" transform="translate(33.805700,28.294900)" fill-rule="nonzero" id="shape40" fill="#3d7ce3"/><path d="M10.8,.0L1.0,.0C.5,.0,.0,.5,.0,1.0L.0,10.8C.0,11.4,.5,11.9,1.0,11.9L10.8,11.9C11.4,11.8,11.8,11.4,11.8,10.8L11.8,1.0C11.8,.5,11.3,.0,10.8,.0" transform="translate(48.891170,43.381350)" fill-rule="nonzero" id="shape41" fill="#ffffff"/><path d="M41.6,14.6C41.9,14.6,42.1,14.5,42.3,14.3C42.5,14.2,42.6,13.9,42.6,13.7L42.6,12.1C42.6,11.6,42.2,11.2,41.6,11.2L36.9,11.2L36.9,6.7C36.9,6.2,36.4,5.7,35.8,5.7L31.4,5.7L31.4,.9C31.4,.4,31.0,.0,30.4,.0L28.9,.0C28.4,.0,28.0,.4,28.0,.9L28.0,5.7L23.0,5.7L23.0,.9C23.0,.7,22.9,.4,22.7,.3C22.5,.1,22.3,.0,22.0,.0L20.5,.0C20.0,.0,19.6,.4,19.6,.9L19.6,5.7L14.6,5.7L14.6,.9C14.6,.4,14.2,.0,13.6,.0L12.1,.0C11.6,.0,11.2,.4,11.2,.9L11.2,5.7L6.7,5.7C6.2,5.7,5.7,6.2,5.7,6.7L5.7,11.2L.9,11.2C.4,11.2,.0,11.6,.0,12.1L.0,13.6C.0,14.1,.4,14.6,.9,14.6L5.7,14.6L5.7,19.6L.9,19.6C.4,19.6,.0,20.0,.0,20.5L.0,22.1C.0,22.3,.1,22.6,.3,22.7C.4,22.9,.7,23.0,.9,23.0L5.7,23.0L5.7,28.0L.9,28.0C.4,28.0,.0,28.5,.0,29.0L.0,30.5C.0,31.0,.4,31.4,.9,31.4L5.7,31.4L5.7,35.9C5.7,36.4,6.2,36.9,6.7,36.9L11.2,36.9L11.2,41.7C11.2,42.2,11.6,42.6,12.1,42.6L13.6,42.6C14.2,42.6,14.6,42.2,14.6,41.7L14.6,36.9L19.6,36.9L19.6,41.7C19.6,42.2,20.0,42.6,20.5,42.6L22.0,42.6C22.5,42.6,23.0,42.2,23.0,41.7L23.0,36.9L28.0,36.9L28.0,41.7C28.0,42.2,28.4,42.6,29.0,42.6L30.5,42.6C31.0,42.6,31.4,42.2,31.4,41.7L31.4,36.9L35.9,36.9C36.4,36.9,36.9,36.4,36.9,35.9L36.9,31.4L41.6,31.4C41.9,31.4,42.1,31.3,42.3,31.2C42.5,31.0,42.6,30.7,42.6,30.5L42.6,29.0C42.6,28.4,42.2,28.0,41.6,28.0L36.9,28.0L36.9,23.0L41.6,23.0C41.9,23.0,42.1,22.9,42.3,22.7C42.5,22.6,42.6,22.3,42.6,22.1L42.6,20.6C42.6,20.3,42.5,20.0,42.3,19.9C42.1,19.7,41.9,19.6,41.6,19.6L36.9,19.6L36.9,14.6L41.6,14.6zM33.4,33.5L9.2,33.5L9.2,9.2L33.4,9.2L33.4,33.5z" transform="translate(33.617300,28.003400)" fill-rule="nonzero" id="shape42" fill="#ffffff"/><text style="fill:#191919;font-family:Microsoft YaHei;font-size:18.00pt" xml:space="preserve"><tspan x="16.9" y="136.6">Sensor</tspan></text></g><g transform="translate(428.641000,945.795400)" id="shape43"><path d="M.0,.0L336.4,.0L336.4,62.3L.0,62.3L.0,.0z" stroke="#323232" fill-rule="nonzero" fill="#ffffff" stroke-width="1"/><text style="fill:#191919;font-family:Microsoft YaHei;font-size:18.00pt" xml:space="preserve"><tspan x="112.6" y="41.2">Event Bus</tspan></text></g><g transform="translate(483.435000,1060.325300)" id="shape44"><path stroke="#323232" d="M.0,.0L-0.0,-46.0" fill="none" stroke-width="2"/><path stroke-linecap="round" stroke="#323232" d="M-0.0,-52.2L-4.2,-44.9C-3.0,-45.6,-1.5,-46.0,-0.0,-46.0C1.5,-46.0,3.0,-45.6,4.2,-44.9L-0.0,-52.2" fill="#323232" stroke-width="1"/><rect height="32.0" width="132.7" x="-65.4" fill="#ffffff" y="-40.3"/><text style="fill:#191919;font-family:Microsoft YaHei;font-size:18.00pt" xml:space="preserve"><tspan x="-65.4" y="-14.3">Write Event</tspan></text></g><g transform="translate(710.206000,1060.325300)" id="shape45"><path stroke="#323232" d="M.0,.0L.0,-44.8" fill="none" stroke-width="2"/><path stroke-linecap="round" stroke="#323232" d="M.0,-51.0L-4.2,-43.7C-3.0,-44.4,-1.5,-44.8,.0,-44.8C1.5,-44.8,3.0,-44.4,4.2,-43.7L.0,-51.0" fill="#323232" stroke-width="1"/><rect height="32.0" width="128.1" x="-63.0" fill="#ffffff" y="-39.1"/><text style="fill:#191919;font-family:Microsoft YaHei;font-size:18.00pt" xml:space="preserve"><tspan x="-63.0" y="-13.1">Read Event</tspan></text></g><g transform="translate(882.182800,1060.325300)" id="group46"><path d="M108.3,44.3L85.8,5.0C84.0,2.0,80.8,.0,77.3,.0L32.3,.0C28.8,.0,25.6,2.0,23.8,5.0L1.3,44.2C-0.4,47.2,-0.4,50.9,1.3,54.0L23.8,93.4C25.5,96.5,28.7,98.5,32.3,98.6L77.3,98.6C80.8,98.5,84.0,96.5,85.8,93.4L108.3,54.2C110.0,51.1,110.0,47.3,108.3,44.3z" fill-rule="nonzero" id="shape47" fill="#4285f4"/><path d="M68.0,37.1L30.9,.0L28.3,5.8L22.5,.0L19.8,5.7L14.1,.0L12.7,6.9L7.6,7.8L6.6,12.3L.0,13.9L5.9,19.8L.0,22.4L5.9,28.2L.0,30.8L39.5,70.3L43.5,70.3C47.0,70.2,50.2,68.2,52.0,65.1L68.0,37.1z" transform="translate(33.805700,28.294900)" fill-rule="nonzero" id="shape48" fill="#3d7ce3"/><path d="M10.8,.0L1.0,.0C.5,.0,.0,.5,.0,1.0L.0,10.8C.0,11.4,.5,11.9,1.0,11.9L10.8,11.9C11.4,11.8,11.8,11.4,11.8,10.8L11.8,1.0C11.8,.5,11.3,.0,10.8,.0" transform="translate(48.891170,43.381350)" fill-rule="nonzero" id="shape49" fill="#ffffff"/><path d="M41.6,14.6C41.9,14.6,42.1,14.5,42.3,14.3C42.5,14.2,42.6,13.9,42.6,13.7L42.6,12.1C42.6,11.6,42.2,11.2,41.6,11.2L36.9,11.2L36.9,6.7C36.9,6.2,36.4,5.7,35.8,5.7L31.4,5.7L31.4,.9C31.4,.4,31.0,.0,30.4,.0L28.9,.0C28.4,.0,28.0,.4,28.0,.9L28.0,5.7L23.0,5.7L23.0,.9C23.0,.7,22.9,.4,22.7,.3C22.5,.1,22.3,.0,22.0,.0L20.5,.0C20.0,.0,19.6,.4,19.6,.9L19.6,5.7L14.6,5.7L14.6,.9C14.6,.4,14.2,.0,13.6,.0L12.1,.0C11.6,.0,11.2,.4,11.2,.9L11.2,5.7L6.7,5.7C6.2,5.7,5.7,6.2,5.7,6.7L5.7,11.2L.9,11.2C.4,11.2,.0,11.6,.0,12.1L.0,13.6C.0,14.1,.4,14.6,.9,14.6L5.7,14.6L5.7,19.6L.9,19.6C.4,19.6,.0,20.0,.0,20.5L.0,22.1C.0,22.3,.1,22.6,.3,22.7C.4,22.9,.7,23.0,.9,23.0L5.7,23.0L5.7,28.0L.9,28.0C.4,28.0,.0,28.5,.0,29.0L.0,30.5C.0,31.0,.4,31.4,.9,31.4L5.7,31.4L5.7,35.9C5.7,36.4,6.2,36.9,6.7,36.9L11.2,36.9L11.2,41.7C11.2,42.2,11.6,42.6,12.1,42.6L13.6,42.6C14.2,42.6,14.6,42.2,14.6,41.7L14.6,36.9L19.6,36.9L19.6,41.7C19.6,42.2,20.0,42.6,20.5,42.6L22.0,42.6C22.5,42.6,23.0,42.2,23.0,41.7L23.0,36.9L28.0,36.9L28.0,41.7C28.0,42.2,28.4,42.6,29.0,42.6L30.5,42.6C31.0,42.6,31.4,42.2,31.4,41.7L31.4,36.9L35.9,36.9C36.4,36.9,36.9,36.4,36.9,35.9L36.9,31.4L41.6,31.4C41.9,31.4,42.1,31.3,42.3,31.2C42.5,31.0,42.6,30.7,42.6,30.5L42.6,29.0C42.6,28.4,42.2,28.0,41.6,28.0L36.9,28.0L36.9,23.0L41.6,23.0C41.9,23.0,42.1,22.9,42.3,22.7C42.5,22.6,42.6,22.3,42.6,22.1L42.6,20.6C42.6,20.3,42.5,20.0,42.3,19.9C42.1,19.7,41.9,19.6,41.6,19.6L36.9,19.6L36.9,14.6L41.6,14.6zM33.4,33.5L9.2,33.5L9.2,9.2L33.4,9.2L33.4,33.5z" transform="translate(33.617300,28.003400)" fill-rule="nonzero" id="shape50" fill="#ffffff"/><text style="fill:#191919;font-family:Microsoft YaHei;font-size:18.00pt" xml:space="preserve"><tspan x="-14.7" y="136.6">CI Workflow</tspan></text></g><g transform="translate(764.986608,1110.083303)" id="shape51"><path stroke="#323232" d="M.0,.0L113.6,.0" fill="none" stroke-width="1"/><path stroke-linecap="round" stroke="#323232" d="M118.0,.0L112.8,-3.0C113.3,-2.1,113.6,-1.1,113.6,.0C113.6,1.1,113.3,2.1,112.8,3.0L118.0,.0" fill="#323232" stroke-width="1"/><rect height="32.0" width="74.6" x="22.2" fill="#ffffff" y="-16.0"/><text style="fill:#191919;font-family:Microsoft YaHei;font-size:18.00pt" xml:space="preserve"><tspan x="22.2" y="10.0">Create</tspan></text></g><g transform="translate(882.182800,869.276300)" id="group52"><path d="M108.3,44.3L85.8,5.0C84.0,2.0,80.8,.0,77.3,.0L32.3,.0C28.8,.0,25.6,2.0,23.8,5.0L1.3,44.2C-0.4,47.2,-0.4,50.9,1.3,54.0L23.8,93.4C25.5,96.5,28.7,98.5,32.3,98.6L77.3,98.6C80.8,98.5,84.0,96.5,85.8,93.4L108.3,54.2C110.0,51.1,110.0,47.3,108.3,44.3z" fill-rule="nonzero" id="shape53" fill="#4285f4"/><path d="M68.0,37.1L30.9,.0L28.3,5.8L22.5,.0L19.8,5.7L14.1,.0L12.7,6.9L7.6,7.8L6.6,12.3L.0,13.9L5.9,19.8L.0,22.4L5.9,28.2L.0,30.8L39.5,70.3L43.5,70.3C47.0,70.2,50.2,68.2,52.0,65.1L68.0,37.1z" transform="translate(33.805700,28.294900)" fill-rule="nonzero" id="shape54" fill="#3d7ce3"/><path d="M10.8,.0L1.0,.0C.5,.0,.0,.5,.0,1.0L.0,10.8C.0,11.4,.5,11.9,1.0,11.9L10.8,11.9C11.4,11.8,11.8,11.4,11.8,10.8L11.8,1.0C11.8,.5,11.3,.0,10.8,.0" transform="translate(48.891170,43.381350)" fill-rule="nonzero" id="shape55" fill="#ffffff"/><path d="M41.6,14.6C41.9,14.6,42.1,14.5,42.3,14.3C42.5,14.2,42.6,13.9,42.6,13.7L42.6,12.1C42.6,11.6,42.2,11.2,41.6,11.2L36.9,11.2L36.9,6.7C36.9,6.2,36.4,5.7,35.8,5.7L31.4,5.7L31.4,.9C31.4,.4,31.0,.0,30.4,.0L28.9,.0C28.4,.0,28.0,.4,28.0,.9L28.0,5.7L23.0,5.7L23.0,.9C23.0,.7,22.9,.4,22.7,.3C22.5,.1,22.3,.0,22.0,.0L20.5,.0C20.0,.0,19.6,.4,19.6,.9L19.6,5.7L14.6,5.7L14.6,.9C14.6,.4,14.2,.0,13.6,.0L12.1,.0C11.6,.0,11.2,.4,11.2,.9L11.2,5.7L6.7,5.7C6.2,5.7,5.7,6.2,5.7,6.7L5.7,11.2L.9,11.2C.4,11.2,.0,11.6,.0,12.1L.0,13.6C.0,14.1,.4,14.6,.9,14.6L5.7,14.6L5.7,19.6L.9,19.6C.4,19.6,.0,20.0,.0,20.5L.0,22.1C.0,22.3,.1,22.6,.3,22.7C.4,22.9,.7,23.0,.9,23.0L5.7,23.0L5.7,28.0L.9,28.0C.4,28.0,.0,28.5,.0,29.0L.0,30.5C.0,31.0,.4,31.4,.9,31.4L5.7,31.4L5.7,35.9C5.7,36.4,6.2,36.9,6.7,36.9L11.2,36.9L11.2,41.7C11.2,42.2,11.6,42.6,12.1,42.6L13.6,42.6C14.2,42.6,14.6,42.2,14.6,41.7L14.6,36.9L19.6,36.9L19.6,41.7C19.6,42.2,20.0,42.6,20.5,42.6L22.0,42.6C22.5,42.6,23.0,42.2,23.0,41.7L23.0,36.9L28.0,36.9L28.0,41.7C28.0,42.2,28.4,42.6,29.0,42.6L30.5,42.6C31.0,42.6,31.4,42.2,31.4,41.7L31.4,36.9L35.9,36.9C36.4,36.9,36.9,36.4,36.9,35.9L36.9,31.4L41.6,31.4C41.9,31.4,42.1,31.3,42.3,31.2C42.5,31.0,42.6,30.7,42.6,30.5L42.6,29.0C42.6,28.4,42.2,28.0,41.6,28.0L36.9,28.0L36.9,23.0L41.6,23.0C41.9,23.0,42.1,22.9,42.3,22.7C42.5,22.6,42.6,22.3,42.6,22.1L42.6,20.6C42.6,20.3,42.5,20.0,42.3,19.9C42.1,19.7,41.9,19.6,41.6,19.6L36.9,19.6L36.9,14.6L41.6,14.6zM33.4,33.5L9.2,33.5L9.2,9.2L33.4,9.2L33.4,33.5z" transform="translate(33.617300,28.003400)" fill-rule="nonzero" id="shape56" fill="#ffffff"/><text style="fill:#191919;font-family:Microsoft YaHei;font-size:18.00pt" xml:space="preserve"><tspan x="-55.9" y="136.6">Pod 1 Git Pull Code</tspan></text></g><g transform="translate(882.182800,670.229300)" id="group57"><path d="M108.3,44.3L85.8,5.0C84.0,2.0,80.8,.0,77.3,.0L32.3,.0C28.8,.0,25.6,2.0,23.8,5.0L1.3,44.2C-0.4,47.2,-0.4,50.9,1.3,54.0L23.8,93.4C25.5,96.5,28.7,98.5,32.3,98.6L77.3,98.6C80.8,98.5,84.0,96.5,85.8,93.4L108.3,54.2C110.0,51.1,110.0,47.3,108.3,44.3z" fill-rule="nonzero" id="shape58" fill="#4285f4"/><path d="M68.0,37.1L30.9,.0L28.3,5.8L22.5,.0L19.8,5.7L14.1,.0L12.7,6.9L7.6,7.8L6.6,12.3L.0,13.9L5.9,19.8L.0,22.4L5.9,28.2L.0,30.8L39.5,70.3L43.5,70.3C47.0,70.2,50.2,68.2,52.0,65.1L68.0,37.1z" transform="translate(33.805700,28.294900)" fill-rule="nonzero" id="shape59" fill="#3d7ce3"/><path d="M10.8,.0L1.0,.0C.5,.0,.0,.5,.0,1.0L.0,10.8C.0,11.4,.5,11.9,1.0,11.9L10.8,11.9C11.4,11.8,11.8,11.4,11.8,10.8L11.8,1.0C11.8,.5,11.3,.0,10.8,.0" transform="translate(48.891170,43.381350)" fill-rule="nonzero" id="shape60" fill="#ffffff"/><path d="M41.6,14.6C41.9,14.6,42.1,14.5,42.3,14.3C42.5,14.2,42.6,13.9,42.6,13.7L42.6,12.1C42.6,11.6,42.2,11.2,41.6,11.2L36.9,11.2L36.9,6.7C36.9,6.2,36.4,5.7,35.8,5.7L31.4,5.7L31.4,.9C31.4,.4,31.0,.0,30.4,.0L28.9,.0C28.4,.0,28.0,.4,28.0,.9L28.0,5.7L23.0,5.7L23.0,.9C23.0,.7,22.9,.4,22.7,.3C22.5,.1,22.3,.0,22.0,.0L20.5,.0C20.0,.0,19.6,.4,19.6,.9L19.6,5.7L14.6,5.7L14.6,.9C14.6,.4,14.2,.0,13.6,.0L12.1,.0C11.6,.0,11.2,.4,11.2,.9L11.2,5.7L6.7,5.7C6.2,5.7,5.7,6.2,5.7,6.7L5.7,11.2L.9,11.2C.4,11.2,.0,11.6,.0,12.1L.0,13.6C.0,14.1,.4,14.6,.9,14.6L5.7,14.6L5.7,19.6L.9,19.6C.4,19.6,.0,20.0,.0,20.5L.0,22.1C.0,22.3,.1,22.6,.3,22.7C.4,22.9,.7,23.0,.9,23.0L5.7,23.0L5.7,28.0L.9,28.0C.4,28.0,.0,28.5,.0,29.0L.0,30.5C.0,31.0,.4,31.4,.9,31.4L5.7,31.4L5.7,35.9C5.7,36.4,6.2,36.9,6.7,36.9L11.2,36.9L11.2,41.7C11.2,42.2,11.6,42.6,12.1,42.6L13.6,42.6C14.2,42.6,14.6,42.2,14.6,41.7L14.6,36.9L19.6,36.9L19.6,41.7C19.6,42.2,20.0,42.6,20.5,42.6L22.0,42.6C22.5,42.6,23.0,42.2,23.0,41.7L23.0,36.9L28.0,36.9L28.0,41.7C28.0,42.2,28.4,42.6,29.0,42.6L30.5,42.6C31.0,42.6,31.4,42.2,31.4,41.7L31.4,36.9L35.9,36.9C36.4,36.9,36.9,36.4,36.9,35.9L36.9,31.4L41.6,31.4C41.9,31.4,42.1,31.3,42.3,31.2C42.5,31.0,42.6,30.7,42.6,30.5L42.6,29.0C42.6,28.4,42.2,28.0,41.6,28.0L36.9,28.0L36.9,23.0L41.6,23.0C41.9,23.0,42.1,22.9,42.3,22.7C42.5,22.6,42.6,22.3,42.6,22.1L42.6,20.6C42.6,20.3,42.5,20.0,42.3,19.9C42.1,19.7,41.9,19.6,41.6,19.6L36.9,19.6L36.9,14.6L41.6,14.6zM33.4,33.5L9.2,33.5L9.2,9.2L33.4,9.2L33.4,33.5z" transform="translate(33.617300,28.003400)" fill-rule="nonzero" id="shape61" fill="#ffffff"/><text style="fill:#000000;font-family:Microsoft YaHei;font-size:18.00pt" xml:space="preserve"><tspan x="-115.7" y="152.6">Pod 2 Kaniko Build Use Cache</tspan><tspan x="-38.3" y="184.6">And Push Image</tspan></text></g><g transform="translate(1681.545800,869.276300)" id="group62"><path d="M108.3,44.3L85.8,5.0C84.0,2.0,80.8,.0,77.3,.0L32.3,.0C28.8,.0,25.6,2.0,23.8,5.0L1.3,44.2C-0.4,47.2,-0.4,50.9,1.3,54.0L23.8,93.4C25.5,96.5,28.7,98.5,32.3,98.6L77.3,98.6C80.8,98.5,84.0,96.5,85.8,93.4L108.3,54.2C110.0,51.1,110.0,47.3,108.3,44.3z" fill-rule="nonzero" id="shape63" fill="#4285f4"/><path d="M68.0,37.1L30.9,.0L28.3,5.8L22.5,.0L19.8,5.7L14.1,.0L12.7,6.9L7.6,7.8L6.6,12.3L.0,13.9L5.9,19.8L.0,22.4L5.9,28.2L.0,30.8L39.5,70.3L43.5,70.3C47.0,70.2,50.2,68.2,52.0,65.1L68.0,37.1z" transform="translate(33.805700,28.294900)" fill-rule="nonzero" id="shape64" fill="#3d7ce3"/><path d="M10.8,.0L1.0,.0C.5,.0,.0,.5,.0,1.0L.0,10.8C.0,11.4,.5,11.9,1.0,11.9L10.8,11.9C11.4,11.8,11.8,11.4,11.8,10.8L11.8,1.0C11.8,.5,11.3,.0,10.8,.0" transform="translate(48.891170,43.381350)" fill-rule="nonzero" id="shape65" fill="#ffffff"/><path d="M41.6,14.6C41.9,14.6,42.1,14.5,42.3,14.3C42.5,14.2,42.6,13.9,42.6,13.7L42.6,12.1C42.6,11.6,42.2,11.2,41.6,11.2L36.9,11.2L36.9,6.7C36.9,6.2,36.4,5.7,35.8,5.7L31.4,5.7L31.4,.9C31.4,.4,31.0,.0,30.4,.0L28.9,.0C28.4,.0,28.0,.4,28.0,.9L28.0,5.7L23.0,5.7L23.0,.9C23.0,.7,22.9,.4,22.7,.3C22.5,.1,22.3,.0,22.0,.0L20.5,.0C20.0,.0,19.6,.4,19.6,.9L19.6,5.7L14.6,5.7L14.6,.9C14.6,.4,14.2,.0,13.6,.0L12.1,.0C11.6,.0,11.2,.4,11.2,.9L11.2,5.7L6.7,5.7C6.2,5.7,5.7,6.2,5.7,6.7L5.7,11.2L.9,11.2C.4,11.2,.0,11.6,.0,12.1L.0,13.6C.0,14.1,.4,14.6,.9,14.6L5.7,14.6L5.7,19.6L.9,19.6C.4,19.6,.0,20.0,.0,20.5L.0,22.1C.0,22.3,.1,22.6,.3,22.7C.4,22.9,.7,23.0,.9,23.0L5.7,23.0L5.7,28.0L.9,28.0C.4,28.0,.0,28.5,.0,29.0L.0,30.5C.0,31.0,.4,31.4,.9,31.4L5.7,31.4L5.7,35.9C5.7,36.4,6.2,36.9,6.7,36.9L11.2,36.9L11.2,41.7C11.2,42.2,11.6,42.6,12.1,42.6L13.6,42.6C14.2,42.6,14.6,42.2,14.6,41.7L14.6,36.9L19.6,36.9L19.6,41.7C19.6,42.2,20.0,42.6,20.5,42.6L22.0,42.6C22.5,42.6,23.0,42.2,23.0,41.7L23.0,36.9L28.0,36.9L28.0,41.7C28.0,42.2,28.4,42.6,29.0,42.6L30.5,42.6C31.0,42.6,31.4,42.2,31.4,41.7L31.4,36.9L35.9,36.9C36.4,36.9,36.9,36.4,36.9,35.9L36.9,31.4L41.6,31.4C41.9,31.4,42.1,31.3,42.3,31.2C42.5,31.0,42.6,30.7,42.6,30.5L42.6,29.0C42.6,28.4,42.2,28.0,41.6,28.0L36.9,28.0L36.9,23.0L41.6,23.0C41.9,23.0,42.1,22.9,42.3,22.7C42.5,22.6,42.6,22.3,42.6,22.1L42.6,20.6C42.6,20.3,42.5,20.0,42.3,19.9C42.1,19.7,41.9,19.6,41.6,19.6L36.9,19.6L36.9,14.6L41.6,14.6zM33.4,33.5L9.2,33.5L9.2,9.2L33.4,9.2L33.4,33.5z" transform="translate(33.617300,28.003400)" fill-rule="nonzero" id="shape66" fill="#ffffff"/><text style="fill:#000000;font-family:Microsoft YaHei;font-size:18.00pt" xml:space="preserve"><tspan x="-29.0" y="136.6">Pod 1 模型训练</tspan><tspan x="-24.5" y="168.6">选择 GPU 机器</tspan></text></g><g transform="translate(1681.545800,464.029300)" id="group67"><path d="M108.3,44.3L85.8,5.0C84.0,2.0,80.8,.0,77.3,.0L32.3,.0C28.8,.0,25.6,2.0,23.8,5.0L1.3,44.2C-0.4,47.2,-0.4,50.9,1.3,54.0L23.8,93.4C25.5,96.5,28.7,98.5,32.3,98.6L77.3,98.6C80.8,98.5,84.0,96.5,85.8,93.4L108.3,54.2C110.0,51.1,110.0,47.3,108.3,44.3z" fill-rule="nonzero" id="shape68" fill="#4285f4"/><path d="M68.0,37.1L30.9,.0L28.3,5.8L22.5,.0L19.8,5.7L14.1,.0L12.7,6.9L7.6,7.8L6.6,12.3L.0,13.9L5.9,19.8L.0,22.4L5.9,28.2L.0,30.8L39.5,70.3L43.5,70.3C47.0,70.2,50.2,68.2,52.0,65.1L68.0,37.1z" transform="translate(33.805700,28.294900)" fill-rule="nonzero" id="shape69" fill="#3d7ce3"/><path d="M10.8,.0L1.0,.0C.5,.0,.0,.5,.0,1.0L.0,10.8C.0,11.4,.5,11.9,1.0,11.9L10.8,11.9C11.4,11.8,11.8,11.4,11.8,10.8L11.8,1.0C11.8,.5,11.3,.0,10.8,.0" transform="translate(48.891170,43.381350)" fill-rule="nonzero" id="shape70" fill="#ffffff"/><path d="M41.6,14.6C41.9,14.6,42.1,14.5,42.3,14.3C42.5,14.2,42.6,13.9,42.6,13.7L42.6,12.1C42.6,11.6,42.2,11.2,41.6,11.2L36.9,11.2L36.9,6.7C36.9,6.2,36.4,5.7,35.8,5.7L31.4,5.7L31.4,.9C31.4,.4,31.0,.0,30.4,.0L28.9,.0C28.4,.0,28.0,.4,28.0,.9L28.0,5.7L23.0,5.7L23.0,.9C23.0,.7,22.9,.4,22.7,.3C22.5,.1,22.3,.0,22.0,.0L20.5,.0C20.0,.0,19.6,.4,19.6,.9L19.6,5.7L14.6,5.7L14.6,.9C14.6,.4,14.2,.0,13.6,.0L12.1,.0C11.6,.0,11.2,.4,11.2,.9L11.2,5.7L6.7,5.7C6.2,5.7,5.7,6.2,5.7,6.7L5.7,11.2L.9,11.2C.4,11.2,.0,11.6,.0,12.1L.0,13.6C.0,14.1,.4,14.6,.9,14.6L5.7,14.6L5.7,19.6L.9,19.6C.4,19.6,.0,20.0,.0,20.5L.0,22.1C.0,22.3,.1,22.6,.3,22.7C.4,22.9,.7,23.0,.9,23.0L5.7,23.0L5.7,28.0L.9,28.0C.4,28.0,.0,28.5,.0,29.0L.0,30.5C.0,31.0,.4,31.4,.9,31.4L5.7,31.4L5.7,35.9C5.7,36.4,6.2,36.9,6.7,36.9L11.2,36.9L11.2,41.7C11.2,42.2,11.6,42.6,12.1,42.6L13.6,42.6C14.2,42.6,14.6,42.2,14.6,41.7L14.6,36.9L19.6,36.9L19.6,41.7C19.6,42.2,20.0,42.6,20.5,42.6L22.0,42.6C22.5,42.6,23.0,42.2,23.0,41.7L23.0,36.9L28.0,36.9L28.0,41.7C28.0,42.2,28.4,42.6,29.0,42.6L30.5,42.6C31.0,42.6,31.4,42.2,31.4,41.7L31.4,36.9L35.9,36.9C36.4,36.9,36.9,36.4,36.9,35.9L36.9,31.4L41.6,31.4C41.9,31.4,42.1,31.3,42.3,31.2C42.5,31.0,42.6,30.7,42.6,30.5L42.6,29.0C42.6,28.4,42.2,28.0,41.6,28.0L36.9,28.0L36.9,23.0L41.6,23.0C41.9,23.0,42.1,22.9,42.3,22.7C42.5,22.6,42.6,22.3,42.6,22.1L42.6,20.6C42.6,20.3,42.5,20.0,42.3,19.9C42.1,19.7,41.9,19.6,41.6,19.6L36.9,19.6L36.9,14.6L41.6,14.6zM33.4,33.5L9.2,33.5L9.2,9.2L33.4,9.2L33.4,33.5z" transform="translate(33.617300,28.003400)" fill-rule="nonzero" id="shape71" fill="#ffffff"/><text style="fill:#000000;font-family:Microsoft YaHei;font-size:18.00pt" xml:space="preserve"><tspan x="-29.0" y="136.6">Pod 3 模型存储</tspan></text></g><g transform="translate(936.977000,1060.325300)" id="shape72"><path stroke="#323232" d="M.0,.0L.0,-86.8" fill="none" stroke-width="2"/><path stroke-linecap="round" stroke="#323232" d="M.0,-93.0L-4.2,-85.7C-3.0,-86.4,-1.5,-86.8,.0,-86.8C1.5,-86.8,3.0,-86.4,4.2,-85.7L.0,-93.0" fill="#323232" stroke-width="1"/></g><g transform="translate(882.183000,918.591000)" id="shape73"><path stroke="#323232" d="M.0,.0L-625.6,.0" fill="none" stroke-width="2"/><path stroke-linecap="round" stroke="#323232" d="M-631.8,.0L-624.4,4.2C-625.2,3.0,-625.6,1.5,-625.6,.0C-625.6,-1.5,-625.2,-3.0,-624.4,-4.2L-631.8,.0" fill="#323232" stroke-width="1"/></g><g transform="translate(882.183000,719.544000)" id="shape74"><path stroke="#323232" d="M.0,.0L-624.8,.0" fill="none" stroke-width="2"/><path stroke-linecap="round" stroke="#323232" d="M-631.0,.0L-623.7,4.2C-624.4,3.0,-624.8,1.5,-624.8,.0C-624.8,-1.5,-624.4,-3.0,-623.7,-4.2L-631.0,.0" fill="#323232" stroke-width="1"/></g><g transform="translate(936.977000,869.276000)" id="shape75"><path stroke="#323232" d="M.0,.0L.0,-94.8" fill="none" stroke-width="2"/><path stroke-linecap="round" stroke="#323232" d="M.0,-101.0L-4.2,-93.7C-3.0,-94.4,-1.5,-94.8,.0,-94.8C1.5,-94.8,3.0,-94.4,4.2,-93.7L.0,-101.0" fill="#323232" stroke-width="1"/></g><g transform="translate(428.640800,1109.640000)" id="shape76"><path stroke="#323232" d="M-6.2,.0L-178.0,.0L-178.0,6.0" fill="none" stroke-width="2"/><path stroke-linecap="round" stroke="#323232" d="M.0,.0L-7.3,-4.2C-6.6,-3.0,-6.2,-1.5,-6.2,.0C-6.2,1.5,-6.6,3.0,-7.3,4.2L.0,.0" fill="#323232" stroke-width="1"/><rect height="32.0" width="115.5" x="-131.7" fill="#ffffff" y="-16.0"/><text style="fill:#191919;font-family:Microsoft YaHei;font-size:18.00pt" xml:space="preserve"><tspan x="-131.7" y="10.0">WebHook</tspan></text></g><g transform="translate(1227.995800,1058.325300)" id="group77"><path d="M108.3,44.3L85.8,5.0C84.0,2.0,80.8,.0,77.3,.0L32.3,.0C28.8,.0,25.6,2.0,23.8,5.0L1.3,44.2C-0.4,47.2,-0.4,50.9,1.3,54.0L23.8,93.4C25.5,96.5,28.7,98.5,32.3,98.6L77.3,98.6C80.8,98.5,84.0,96.5,85.8,93.4L108.3,54.2C110.0,51.1,110.0,47.3,108.3,44.3z" fill-rule="nonzero" id="shape78" fill="#4285f4"/><path d="M68.0,37.1L30.9,.0L28.3,5.8L22.5,.0L19.8,5.7L14.1,.0L12.7,6.9L7.6,7.8L6.6,12.3L.0,13.9L5.9,19.8L.0,22.4L5.9,28.2L.0,30.8L39.5,70.3L43.5,70.3C47.0,70.2,50.2,68.2,52.0,65.1L68.0,37.1z" transform="translate(33.805700,28.294900)" fill-rule="nonzero" id="shape79" fill="#3d7ce3"/><path d="M10.8,.0L1.0,.0C.5,.0,.0,.5,.0,1.0L.0,10.8C.0,11.4,.5,11.9,1.0,11.9L10.8,11.9C11.4,11.8,11.8,11.4,11.8,10.8L11.8,1.0C11.8,.5,11.3,.0,10.8,.0" transform="translate(48.891170,43.381350)" fill-rule="nonzero" id="shape80" fill="#ffffff"/><path d="M41.6,14.6C41.9,14.6,42.1,14.5,42.3,14.3C42.5,14.2,42.6,13.9,42.6,13.7L42.6,12.1C42.6,11.6,42.2,11.2,41.6,11.2L36.9,11.2L36.9,6.7C36.9,6.2,36.4,5.7,35.8,5.7L31.4,5.7L31.4,.9C31.4,.4,31.0,.0,30.4,.0L28.9,.0C28.4,.0,28.0,.4,28.0,.9L28.0,5.7L23.0,5.7L23.0,.9C23.0,.7,22.9,.4,22.7,.3C22.5,.1,22.3,.0,22.0,.0L20.5,.0C20.0,.0,19.6,.4,19.6,.9L19.6,5.7L14.6,5.7L14.6,.9C14.6,.4,14.2,.0,13.6,.0L12.1,.0C11.6,.0,11.2,.4,11.2,.9L11.2,5.7L6.7,5.7C6.2,5.7,5.7,6.2,5.7,6.7L5.7,11.2L.9,11.2C.4,11.2,.0,11.6,.0,12.1L.0,13.6C.0,14.1,.4,14.6,.9,14.6L5.7,14.6L5.7,19.6L.9,19.6C.4,19.6,.0,20.0,.0,20.5L.0,22.1C.0,22.3,.1,22.6,.3,22.7C.4,22.9,.7,23.0,.9,23.0L5.7,23.0L5.7,28.0L.9,28.0C.4,28.0,.0,28.5,.0,29.0L.0,30.5C.0,31.0,.4,31.4,.9,31.4L5.7,31.4L5.7,35.9C5.7,36.4,6.2,36.9,6.7,36.9L11.2,36.9L11.2,41.7C11.2,42.2,11.6,42.6,12.1,42.6L13.6,42.6C14.2,42.6,14.6,42.2,14.6,41.7L14.6,36.9L19.6,36.9L19.6,41.7C19.6,42.2,20.0,42.6,20.5,42.6L22.0,42.6C22.5,42.6,23.0,42.2,23.0,41.7L23.0,36.9L28.0,36.9L28.0,41.7C28.0,42.2,28.4,42.6,29.0,42.6L30.5,42.6C31.0,42.6,31.4,42.2,31.4,41.7L31.4,36.9L35.9,36.9C36.4,36.9,36.9,36.4,36.9,35.9L36.9,31.4L41.6,31.4C41.9,31.4,42.1,31.3,42.3,31.2C42.5,31.0,42.6,30.7,42.6,30.5L42.6,29.0C42.6,28.4,42.2,28.0,41.6,28.0L36.9,28.0L36.9,23.0L41.6,23.0C41.9,23.0,42.1,22.9,42.3,22.7C42.5,22.6,42.6,22.3,42.6,22.1L42.6,20.6C42.6,20.3,42.5,20.0,42.3,19.9C42.1,19.7,41.9,19.6,41.6,19.6L36.9,19.6L36.9,14.6L41.6,14.6zM33.4,33.5L9.2,33.5L9.2,9.2L33.4,9.2L33.4,33.5z" transform="translate(33.617300,28.003400)" fill-rule="nonzero" id="shape81" fill="#ffffff"/><text style="fill:#191919;font-family:Microsoft YaHei;font-size:18.00pt" xml:space="preserve"><tspan x="-15.1" y="136.6">EventSource</tspan></text></g><g transform="translate(1454.775800,1058.325300)" id="group82"><path d="M108.3,44.3L85.8,5.0C84.0,2.0,80.8,.0,77.3,.0L32.3,.0C28.8,.0,25.6,2.0,23.8,5.0L1.3,44.2C-0.4,47.2,-0.4,50.9,1.3,54.0L23.8,93.4C25.5,96.5,28.7,98.5,32.3,98.6L77.3,98.6C80.8,98.5,84.0,96.5,85.8,93.4L108.3,54.2C110.0,51.1,110.0,47.3,108.3,44.3z" fill-rule="nonzero" id="shape83" fill="#4285f4"/><path d="M68.0,37.1L30.9,.0L28.3,5.8L22.5,.0L19.8,5.7L14.1,.0L12.7,6.9L7.6,7.8L6.6,12.3L.0,13.9L5.9,19.8L.0,22.4L5.9,28.2L.0,30.8L39.5,70.3L43.5,70.3C47.0,70.2,50.2,68.2,52.0,65.1L68.0,37.1z" transform="translate(33.805700,28.294900)" fill-rule="nonzero" id="shape84" fill="#3d7ce3"/><path d="M10.8,.0L1.0,.0C.5,.0,.0,.5,.0,1.0L.0,10.8C.0,11.4,.5,11.9,1.0,11.9L10.8,11.9C11.4,11.8,11.8,11.4,11.8,10.8L11.8,1.0C11.8,.5,11.3,.0,10.8,.0" transform="translate(48.891170,43.381350)" fill-rule="nonzero" id="shape85" fill="#ffffff"/><path d="M41.6,14.6C41.9,14.6,42.1,14.5,42.3,14.3C42.5,14.2,42.6,13.9,42.6,13.7L42.6,12.1C42.6,11.6,42.2,11.2,41.6,11.2L36.9,11.2L36.9,6.7C36.9,6.2,36.4,5.7,35.8,5.7L31.4,5.7L31.4,.9C31.4,.4,31.0,.0,30.4,.0L28.9,.0C28.4,.0,28.0,.4,28.0,.9L28.0,5.7L23.0,5.7L23.0,.9C23.0,.7,22.9,.4,22.7,.3C22.5,.1,22.3,.0,22.0,.0L20.5,.0C20.0,.0,19.6,.4,19.6,.9L19.6,5.7L14.6,5.7L14.6,.9C14.6,.4,14.2,.0,13.6,.0L12.1,.0C11.6,.0,11.2,.4,11.2,.9L11.2,5.7L6.7,5.7C6.2,5.7,5.7,6.2,5.7,6.7L5.7,11.2L.9,11.2C.4,11.2,.0,11.6,.0,12.1L.0,13.6C.0,14.1,.4,14.6,.9,14.6L5.7,14.6L5.7,19.6L.9,19.6C.4,19.6,.0,20.0,.0,20.5L.0,22.1C.0,22.3,.1,22.6,.3,22.7C.4,22.9,.7,23.0,.9,23.0L5.7,23.0L5.7,28.0L.9,28.0C.4,28.0,.0,28.5,.0,29.0L.0,30.5C.0,31.0,.4,31.4,.9,31.4L5.7,31.4L5.7,35.9C5.7,36.4,6.2,36.9,6.7,36.9L11.2,36.9L11.2,41.7C11.2,42.2,11.6,42.6,12.1,42.6L13.6,42.6C14.2,42.6,14.6,42.2,14.6,41.7L14.6,36.9L19.6,36.9L19.6,41.7C19.6,42.2,20.0,42.6,20.5,42.6L22.0,42.6C22.5,42.6,23.0,42.2,23.0,41.7L23.0,36.9L28.0,36.9L28.0,41.7C28.0,42.2,28.4,42.6,29.0,42.6L30.5,42.6C31.0,42.6,31.4,42.2,31.4,41.7L31.4,36.9L35.9,36.9C36.4,36.9,36.9,36.4,36.9,35.9L36.9,31.4L41.6,31.4C41.9,31.4,42.1,31.3,42.3,31.2C42.5,31.0,42.6,30.7,42.6,30.5L42.6,29.0C42.6,28.4,42.2,28.0,41.6,28.0L36.9,28.0L36.9,23.0L41.6,23.0C41.9,23.0,42.1,22.9,42.3,22.7C42.5,22.6,42.6,22.3,42.6,22.1L42.6,20.6C42.6,20.3,42.5,20.0,42.3,19.9C42.1,19.7,41.9,19.6,41.6,19.6L36.9,19.6L36.9,14.6L41.6,14.6zM33.4,33.5L9.2,33.5L9.2,9.2L33.4,9.2L33.4,33.5z" transform="translate(33.617300,28.003400)" fill-rule="nonzero" id="shape86" fill="#ffffff"/><text style="fill:#191919;font-family:Microsoft YaHei;font-size:18.00pt" xml:space="preserve"><tspan x="16.9" y="136.6">Sensor</tspan></text></g><g transform="translate(1228.001000,945.795400)" id="shape87"><path d="M.0,.0L336.4,.0L336.4,62.3L.0,62.3L.0,.0z" stroke="#323232" fill-rule="nonzero" fill="#ffffff" stroke-width="1"/><text style="fill:#191919;font-family:Microsoft YaHei;font-size:18.00pt" xml:space="preserve"><tspan x="112.6" y="41.2">Event Bus</tspan></text></g><g transform="translate(1282.790000,1058.325300)" id="shape88"><path stroke="#323232" d="M.0,.0L.0,-44.0" fill="none" stroke-width="2"/><path stroke-linecap="round" stroke="#323232" d="M.0,-50.2L-4.2,-42.9C-3.0,-43.6,-1.5,-44.0,.0,-44.0C1.6,-44.0,3.0,-43.6,4.2,-42.9L.0,-50.2" fill="#323232" stroke-width="1"/><rect height="32.0" width="132.7" x="-65.3" fill="#ffffff" y="-39.3"/><text style="fill:#191919;font-family:Microsoft YaHei;font-size:18.00pt" xml:space="preserve"><tspan x="-65.3" y="-13.3">Write Event</tspan></text></g><g transform="translate(1509.570000,1058.325300)" id="shape89"><path stroke="#323232" d="M.0,.0L-0.0,-44.0" fill="none" stroke-width="2"/><path stroke-linecap="round" stroke="#323232" d="M-0.0,-50.2L-4.2,-42.9C-3.0,-43.6,-1.5,-44.0,-0.0,-44.0C1.5,-44.0,3.0,-43.6,4.2,-42.9L-0.0,-50.2" fill="#323232" stroke-width="1"/><rect height="32.0" width="128.1" x="-63.0" fill="#ffffff" y="-38.8"/><text style="fill:#191919;font-family:Microsoft YaHei;font-size:18.00pt" xml:space="preserve"><tspan x="-63.0" y="-12.8">Read Event</tspan></text></g><g transform="translate(251.307600,522.632688)" id="shape90"><path stroke="#323232" d="M.0,.0L901.7,.0L901.7,585.0L970.5,585.0" fill="none" stroke-width="2"/><path stroke-linecap="round" stroke="#323232" d="M976.7,585.0L969.3,580.8C970.1,582.0,970.5,583.5,970.5,585.0C970.5,586.6,970.1,588.0,969.3,589.2L976.7,585.0" fill="#323232" stroke-width="1"/><rect height="32.0" width="115.5" x="50.6" fill="#ffffff" y="-16.0"/><text style="fill:#191919;font-family:Microsoft YaHei;font-size:18.00pt" xml:space="preserve"><tspan x="50.6" y="10.0">WebHook</tspan></text></g><g transform="translate(1681.545800,1058.325300)" id="group91"><path d="M108.3,44.3L85.8,5.0C84.0,2.0,80.8,.0,77.3,.0L32.3,.0C28.8,.0,25.6,2.0,23.8,5.0L1.3,44.2C-0.4,47.2,-0.4,50.9,1.3,54.0L23.8,93.4C25.5,96.5,28.7,98.5,32.3,98.6L77.3,98.6C80.8,98.5,84.0,96.5,85.8,93.4L108.3,54.2C110.0,51.1,110.0,47.3,108.3,44.3z" fill-rule="nonzero" id="shape92" fill="#4285f4"/><path d="M68.0,37.1L30.9,.0L28.3,5.8L22.5,.0L19.8,5.7L14.1,.0L12.7,6.9L7.6,7.8L6.6,12.3L.0,13.9L5.9,19.8L.0,22.4L5.9,28.2L.0,30.8L39.5,70.3L43.5,70.3C47.0,70.2,50.2,68.2,52.0,65.1L68.0,37.1z" transform="translate(33.805700,28.294900)" fill-rule="nonzero" id="shape93" fill="#3d7ce3"/><path d="M10.8,.0L1.0,.0C.5,.0,.0,.5,.0,1.0L.0,10.8C.0,11.4,.5,11.9,1.0,11.9L10.8,11.9C11.4,11.8,11.8,11.4,11.8,10.8L11.8,1.0C11.8,.5,11.3,.0,10.8,.0" transform="translate(48.891170,43.381350)" fill-rule="nonzero" id="shape94" fill="#ffffff"/><path d="M41.6,14.6C41.9,14.6,42.1,14.5,42.3,14.3C42.5,14.2,42.6,13.9,42.6,13.7L42.6,12.1C42.6,11.6,42.2,11.2,41.6,11.2L36.9,11.2L36.9,6.7C36.9,6.2,36.4,5.7,35.8,5.7L31.4,5.7L31.4,.9C31.4,.4,31.0,.0,30.4,.0L28.9,.0C28.4,.0,28.0,.4,28.0,.9L28.0,5.7L23.0,5.7L23.0,.9C23.0,.7,22.9,.4,22.7,.3C22.5,.1,22.3,.0,22.0,.0L20.5,.0C20.0,.0,19.6,.4,19.6,.9L19.6,5.7L14.6,5.7L14.6,.9C14.6,.4,14.2,.0,13.6,.0L12.1,.0C11.6,.0,11.2,.4,11.2,.9L11.2,5.7L6.7,5.7C6.2,5.7,5.7,6.2,5.7,6.7L5.7,11.2L.9,11.2C.4,11.2,.0,11.6,.0,12.1L.0,13.6C.0,14.1,.4,14.6,.9,14.6L5.7,14.6L5.7,19.6L.9,19.6C.4,19.6,.0,20.0,.0,20.5L.0,22.1C.0,22.3,.1,22.6,.3,22.7C.4,22.9,.7,23.0,.9,23.0L5.7,23.0L5.7,28.0L.9,28.0C.4,28.0,.0,28.5,.0,29.0L.0,30.5C.0,31.0,.4,31.4,.9,31.4L5.7,31.4L5.7,35.9C5.7,36.4,6.2,36.9,6.7,36.9L11.2,36.9L11.2,41.7C11.2,42.2,11.6,42.6,12.1,42.6L13.6,42.6C14.2,42.6,14.6,42.2,14.6,41.7L14.6,36.9L19.6,36.9L19.6,41.7C19.6,42.2,20.0,42.6,20.5,42.6L22.0,42.6C22.5,42.6,23.0,42.2,23.0,41.7L23.0,36.9L28.0,36.9L28.0,41.7C28.0,42.2,28.4,42.6,29.0,42.6L30.5,42.6C31.0,42.6,31.4,42.2,31.4,41.7L31.4,36.9L35.9,36.9C36.4,36.9,36.9,36.4,36.9,35.9L36.9,31.4L41.6,31.4C41.9,31.4,42.1,31.3,42.3,31.2C42.5,31.0,42.6,30.7,42.6,30.5L42.6,29.0C42.6,28.4,42.2,28.0,41.6,28.0L36.9,28.0L36.9,23.0L41.6,23.0C41.9,23.0,42.1,22.9,42.3,22.7C42.5,22.6,42.6,22.3,42.6,22.1L42.6,20.6C42.6,20.3,42.5,20.0,42.3,19.9C42.1,19.7,41.9,19.6,41.6,19.6L36.9,19.6L36.9,14.6L41.6,14.6zM33.4,33.5L9.2,33.5L9.2,9.2L33.4,9.2L33.4,33.5z" transform="translate(33.617300,28.003400)" fill-rule="nonzero" id="shape95" fill="#ffffff"/><text style="fill:#191919;font-family:Microsoft YaHei;font-size:18.00pt" xml:space="preserve"><tspan x="-21.0" y="136.6">ML Workflow</tspan></text></g><g transform="translate(1564.363800,1107.640000)" id="shape96"><path stroke="#323232" d="M.0,.0L109.8,.0" fill="none" stroke-width="2"/><path stroke-linecap="round" stroke="#323232" d="M116.0,.0L108.7,-4.2C109.4,-3.0,109.8,-1.5,109.8,.0C109.8,1.5,109.4,3.0,108.7,4.2L116.0,.0" fill="#323232" stroke-width="1"/><rect height="32.0" width="74.6" x="17.1" fill="#ffffff" y="-16.0"/><text style="fill:#191919;font-family:Microsoft YaHei;font-size:18.00pt" xml:space="preserve"><tspan x="17.1" y="10.0">Create</tspan></text></g><path stroke="#4285f4" d="M.0,.0L186.1,.0L186.1,373.2L.0,373.2L.0,.0z" stroke-dasharray="6,4" transform="translate(2523.904600,888.726000)" id="shape97" fill="none" stroke-width="2.666670083999634"/><g transform="translate(2563.075800,897.275300)" id="group98"><path d="M108.3,44.3L85.8,5.0C84.0,2.0,80.8,.0,77.3,.0L32.3,.0C28.8,.0,25.6,2.0,23.8,5.0L1.3,44.2C-0.4,47.2,-0.4,50.9,1.3,54.0L23.8,93.4C25.5,96.5,28.7,98.5,32.3,98.6L77.3,98.6C80.8,98.5,84.0,96.5,85.8,93.4L108.3,54.2C110.0,51.1,110.0,47.3,108.3,44.3z" fill-rule="nonzero" id="shape99" fill="#4285f4"/><path d="M68.0,37.1L30.9,.0L28.3,5.8L22.5,.0L19.8,5.7L14.1,.0L12.7,6.9L7.6,7.8L6.6,12.3L.0,13.9L5.9,19.8L.0,22.4L5.9,28.2L.0,30.8L39.5,70.3L43.5,70.3C47.0,70.2,50.2,68.2,52.0,65.1L68.0,37.1z" transform="translate(33.805700,28.294900)" fill-rule="nonzero" id="shape100" fill="#3d7ce3"/><path d="M10.8,.0L1.0,.0C.5,.0,.0,.5,.0,1.0L.0,10.8C.0,11.4,.5,11.9,1.0,11.9L10.8,11.9C11.4,11.8,11.8,11.4,11.8,10.8L11.8,1.0C11.8,.5,11.3,.0,10.8,.0" transform="translate(48.891170,43.381350)" fill-rule="nonzero" id="shape101" fill="#ffffff"/><path d="M41.6,14.6C41.9,14.6,42.1,14.5,42.3,14.3C42.5,14.2,42.6,13.9,42.6,13.7L42.6,12.1C42.6,11.6,42.2,11.2,41.6,11.2L36.9,11.2L36.9,6.7C36.9,6.2,36.4,5.7,35.8,5.7L31.4,5.7L31.4,.9C31.4,.4,31.0,.0,30.4,.0L28.9,.0C28.4,.0,28.0,.4,28.0,.9L28.0,5.7L23.0,5.7L23.0,.9C23.0,.7,22.9,.4,22.7,.3C22.5,.1,22.3,.0,22.0,.0L20.5,.0C20.0,.0,19.6,.4,19.6,.9L19.6,5.7L14.6,5.7L14.6,.9C14.6,.4,14.2,.0,13.6,.0L12.1,.0C11.6,.0,11.2,.4,11.2,.9L11.2,5.7L6.7,5.7C6.2,5.7,5.7,6.2,5.7,6.7L5.7,11.2L.9,11.2C.4,11.2,.0,11.6,.0,12.1L.0,13.6C.0,14.1,.4,14.6,.9,14.6L5.7,14.6L5.7,19.6L.9,19.6C.4,19.6,.0,20.0,.0,20.5L.0,22.1C.0,22.3,.1,22.6,.3,22.7C.4,22.9,.7,23.0,.9,23.0L5.7,23.0L5.7,28.0L.9,28.0C.4,28.0,.0,28.5,.0,29.0L.0,30.5C.0,31.0,.4,31.4,.9,31.4L5.7,31.4L5.7,35.9C5.7,36.4,6.2,36.9,6.7,36.9L11.2,36.9L11.2,41.7C11.2,42.2,11.6,42.6,12.1,42.6L13.6,42.6C14.2,42.6,14.6,42.2,14.6,41.7L14.6,36.9L19.6,36.9L19.6,41.7C19.6,42.2,20.0,42.6,20.5,42.6L22.0,42.6C22.5,42.6,23.0,42.2,23.0,41.7L23.0,36.9L28.0,36.9L28.0,41.7C28.0,42.2,28.4,42.6,29.0,42.6L30.5,42.6C31.0,42.6,31.4,42.2,31.4,41.7L31.4,36.9L35.9,36.9C36.4,36.9,36.9,36.4,36.9,35.9L36.9,31.4L41.6,31.4C41.9,31.4,42.1,31.3,42.3,31.2C42.5,31.0,42.6,30.7,42.6,30.5L42.6,29.0C42.6,28.4,42.2,28.0,41.6,28.0L36.9,28.0L36.9,23.0L41.6,23.0C41.9,23.0,42.1,22.9,42.3,22.7C42.5,22.6,42.6,22.3,42.6,22.1L42.6,20.6C42.6,20.3,42.5,20.0,42.3,19.9C42.1,19.7,41.9,19.6,41.6,19.6L36.9,19.6L36.9,14.6L41.6,14.6zM33.4,33.5L9.2,33.5L9.2,9.2L33.4,9.2L33.4,33.5z" transform="translate(33.617300,28.003400)" fill-rule="nonzero" id="shape102" fill="#ffffff"/><text style="fill:#191919;font-family:Microsoft YaHei;font-size:18.00pt" xml:space="preserve"><tspan x="31.9" y="136.6">GCS</tspan></text></g><g transform="translate(2523.904600,1199.637100)" id="shape103"><path d="M.0,.0L186.1,.0L186.1,65.4L.0,65.4L.0,.0z" stroke="#323232" fill-rule="nonzero" fill="#ffffff" stroke-width="1"/><text style="fill:#191919;font-family:Microsoft YaHei;font-size:18.00pt" xml:space="preserve"><tspan x="6.9" y="43.0">Object Storage</tspan></text></g><g transform="translate(2563.075800,1055.255300)" id="group104"><path d="M108.3,44.3L85.8,5.0C84.0,2.0,80.8,.0,77.3,.0L32.3,.0C28.8,.0,25.6,2.0,23.8,5.0L1.3,44.2C-0.4,47.2,-0.4,50.9,1.3,54.0L23.8,93.4C25.5,96.5,28.7,98.5,32.3,98.6L77.3,98.6C80.8,98.5,84.0,96.5,85.8,93.4L108.3,54.2C110.0,51.1,110.0,47.3,108.3,44.3z" fill-rule="nonzero" id="shape105" fill="#4285f4"/><path d="M68.0,37.1L30.9,.0L28.3,5.8L22.5,.0L19.8,5.7L14.1,.0L12.7,6.9L7.6,7.8L6.6,12.3L.0,13.9L5.9,19.8L.0,22.4L5.9,28.2L.0,30.8L39.5,70.3L43.5,70.3C47.0,70.2,50.2,68.2,52.0,65.1L68.0,37.1z" transform="translate(33.805700,28.294900)" fill-rule="nonzero" id="shape106" fill="#3d7ce3"/><path d="M10.8,.0L1.0,.0C.5,.0,.0,.5,.0,1.0L.0,10.8C.0,11.4,.5,11.9,1.0,11.9L10.8,11.9C11.4,11.8,11.8,11.4,11.8,10.8L11.8,1.0C11.8,.5,11.3,.0,10.8,.0" transform="translate(48.891170,43.381350)" fill-rule="nonzero" id="shape107" fill="#ffffff"/><path d="M41.6,14.6C41.9,14.6,42.1,14.5,42.3,14.3C42.5,14.2,42.6,13.9,42.6,13.7L42.6,12.1C42.6,11.6,42.2,11.2,41.6,11.2L36.9,11.2L36.9,6.7C36.9,6.2,36.4,5.7,35.8,5.7L31.4,5.7L31.4,.9C31.4,.4,31.0,.0,30.4,.0L28.9,.0C28.4,.0,28.0,.4,28.0,.9L28.0,5.7L23.0,5.7L23.0,.9C23.0,.7,22.9,.4,22.7,.3C22.5,.1,22.3,.0,22.0,.0L20.5,.0C20.0,.0,19.6,.4,19.6,.9L19.6,5.7L14.6,5.7L14.6,.9C14.6,.4,14.2,.0,13.6,.0L12.1,.0C11.6,.0,11.2,.4,11.2,.9L11.2,5.7L6.7,5.7C6.2,5.7,5.7,6.2,5.7,6.7L5.7,11.2L.9,11.2C.4,11.2,.0,11.6,.0,12.1L.0,13.6C.0,14.1,.4,14.6,.9,14.6L5.7,14.6L5.7,19.6L.9,19.6C.4,19.6,.0,20.0,.0,20.5L.0,22.1C.0,22.3,.1,22.6,.3,22.7C.4,22.9,.7,23.0,.9,23.0L5.7,23.0L5.7,28.0L.9,28.0C.4,28.0,.0,28.5,.0,29.0L.0,30.5C.0,31.0,.4,31.4,.9,31.4L5.7,31.4L5.7,35.9C5.7,36.4,6.2,36.9,6.7,36.9L11.2,36.9L11.2,41.7C11.2,42.2,11.6,42.6,12.1,42.6L13.6,42.6C14.2,42.6,14.6,42.2,14.6,41.7L14.6,36.9L19.6,36.9L19.6,41.7C19.6,42.2,20.0,42.6,20.5,42.6L22.0,42.6C22.5,42.6,23.0,42.2,23.0,41.7L23.0,36.9L28.0,36.9L28.0,41.7C28.0,42.2,28.4,42.6,29.0,42.6L30.5,42.6C31.0,42.6,31.4,42.2,31.4,41.7L31.4,36.9L35.9,36.9C36.4,36.9,36.9,36.4,36.9,35.9L36.9,31.4L41.6,31.4C41.9,31.4,42.1,31.3,42.3,31.2C42.5,31.0,42.6,30.7,42.6,30.5L42.6,29.0C42.6,28.4,42.2,28.0,41.6,28.0L36.9,28.0L36.9,23.0L41.6,23.0C41.9,23.0,42.1,22.9,42.3,22.7C42.5,22.6,42.6,22.3,42.6,22.1L42.6,20.6C42.6,20.3,42.5,20.0,42.3,19.9C42.1,19.7,41.9,19.6,41.6,19.6L36.9,19.6L36.9,14.6L41.6,14.6zM33.4,33.5L9.2,33.5L9.2,9.2L33.4,9.2L33.4,33.5z" transform="translate(33.617300,28.003400)" fill-rule="nonzero" id="shape108" fill="#ffffff"/><text style="fill:#191919;font-family:Microsoft YaHei;font-size:18.00pt" xml:space="preserve"><tspan x="1.1" y="136.6">S3/MinIO</tspan></text></g><g transform="translate(1791.130000,918.591000)" id="shape109"><path stroke="#323232" d="M.0,.0L36.8,.0C36.8,-3.3,39.5,-6.0,42.8,-6.0C46.1,-6.0,48.8,-3.3,48.8,.0L509.7,.0C509.7,-3.3,512.4,-6.0,515.7,-6.0C519.0,-6.0,521.7,-3.3,521.7,.0L592.7,.0C592.7,-3.3,595.3,-6.0,598.7,-6.0C602.0,-6.0,604.7,-3.3,604.7,.0L724.8,.0" fill="none" stroke-width="2"/><path stroke-linecap="round" stroke="#323232" d="M731.0,.0L723.7,-4.2C724.4,-3.0,724.8,-1.5,724.8,.0C724.8,1.5,724.4,3.0,723.7,4.2L731.0,.0" fill="#323232" stroke-width="1"/><rect height="32.0" width="165.7" x="260.8" fill="#ffffff" y="-16.0"/><text style="fill:#191919;font-family:Microsoft YaHei;font-size:18.00pt" xml:space="preserve"><tspan x="260.8" y="10.0">Get Train Data</tspan></text></g><g transform="translate(1736.340000,1058.325300)" id="shape110"><path stroke="#323232" d="M.0,.0L.0,-84.8" fill="none" stroke-width="2"/><path stroke-linecap="round" stroke="#323232" d="M.0,-91.0L-4.2,-83.7C-3.0,-84.4,-1.5,-84.8,.0,-84.8C1.5,-84.8,3.0,-84.4,4.2,-83.7L.0,-91.0" fill="#323232" stroke-width="1"/></g><g transform="translate(1681.545800,670.229300)" id="group111"><path d="M108.3,44.3L85.8,5.0C84.0,2.0,80.8,.0,77.3,.0L32.3,.0C28.8,.0,25.6,2.0,23.8,5.0L1.3,44.2C-0.4,47.2,-0.4,50.9,1.3,54.0L23.8,93.4C25.5,96.5,28.7,98.5,32.3,98.6L77.3,98.6C80.8,98.5,84.0,96.5,85.8,93.4L108.3,54.2C110.0,51.1,110.0,47.3,108.3,44.3z" fill-rule="nonzero" id="shape112" fill="#4285f4"/><path d="M68.0,37.1L30.9,.0L28.3,5.8L22.5,.0L19.8,5.7L14.1,.0L12.7,6.9L7.6,7.8L6.6,12.3L.0,13.9L5.9,19.8L.0,22.4L5.9,28.2L.0,30.8L39.5,70.3L43.5,70.3C47.0,70.2,50.2,68.2,52.0,65.1L68.0,37.1z" transform="translate(33.805700,28.294900)" fill-rule="nonzero" id="shape113" fill="#3d7ce3"/><path d="M10.8,.0L1.0,.0C.5,.0,.0,.5,.0,1.0L.0,10.8C.0,11.4,.5,11.9,1.0,11.9L10.8,11.9C11.4,11.8,11.8,11.4,11.8,10.8L11.8,1.0C11.8,.5,11.3,.0,10.8,.0" transform="translate(48.891170,43.381350)" fill-rule="nonzero" id="shape114" fill="#ffffff"/><path d="M41.6,14.6C41.9,14.6,42.1,14.5,42.3,14.3C42.5,14.2,42.6,13.9,42.6,13.7L42.6,12.1C42.6,11.6,42.2,11.2,41.6,11.2L36.9,11.2L36.9,6.7C36.9,6.2,36.4,5.7,35.8,5.7L31.4,5.7L31.4,.9C31.4,.4,31.0,.0,30.4,.0L28.9,.0C28.4,.0,28.0,.4,28.0,.9L28.0,5.7L23.0,5.7L23.0,.9C23.0,.7,22.9,.4,22.7,.3C22.5,.1,22.3,.0,22.0,.0L20.5,.0C20.0,.0,19.6,.4,19.6,.9L19.6,5.7L14.6,5.7L14.6,.9C14.6,.4,14.2,.0,13.6,.0L12.1,.0C11.6,.0,11.2,.4,11.2,.9L11.2,5.7L6.7,5.7C6.2,5.7,5.7,6.2,5.7,6.7L5.7,11.2L.9,11.2C.4,11.2,.0,11.6,.0,12.1L.0,13.6C.0,14.1,.4,14.6,.9,14.6L5.7,14.6L5.7,19.6L.9,19.6C.4,19.6,.0,20.0,.0,20.5L.0,22.1C.0,22.3,.1,22.6,.3,22.7C.4,22.9,.7,23.0,.9,23.0L5.7,23.0L5.7,28.0L.9,28.0C.4,28.0,.0,28.5,.0,29.0L.0,30.5C.0,31.0,.4,31.4,.9,31.4L5.7,31.4L5.7,35.9C5.7,36.4,6.2,36.9,6.7,36.9L11.2,36.9L11.2,41.7C11.2,42.2,11.6,42.6,12.1,42.6L13.6,42.6C14.2,42.6,14.6,42.2,14.6,41.7L14.6,36.9L19.6,36.9L19.6,41.7C19.6,42.2,20.0,42.6,20.5,42.6L22.0,42.6C22.5,42.6,23.0,42.2,23.0,41.7L23.0,36.9L28.0,36.9L28.0,41.7C28.0,42.2,28.4,42.6,29.0,42.6L30.5,42.6C31.0,42.6,31.4,42.2,31.4,41.7L31.4,36.9L35.9,36.9C36.4,36.9,36.9,36.4,36.9,35.9L36.9,31.4L41.6,31.4C41.9,31.4,42.1,31.3,42.3,31.2C42.5,31.0,42.6,30.7,42.6,30.5L42.6,29.0C42.6,28.4,42.2,28.0,41.6,28.0L36.9,28.0L36.9,23.0L41.6,23.0C41.9,23.0,42.1,22.9,42.3,22.7C42.5,22.6,42.6,22.3,42.6,22.1L42.6,20.6C42.6,20.3,42.5,20.0,42.3,19.9C42.1,19.7,41.9,19.6,41.6,19.6L36.9,19.6L36.9,14.6L41.6,14.6zM33.4,33.5L9.2,33.5L9.2,9.2L33.4,9.2L33.4,33.5z" transform="translate(33.617300,28.003400)" fill-rule="nonzero" id="shape115" fill="#ffffff"/><text style="fill:#000000;font-family:Microsoft YaHei;font-size:18.00pt" xml:space="preserve"><tspan x="-29.0" y="136.6">Pod 2 模型评估</tspan></text></g><g transform="translate(1736.000000,869.000000)" id="shape116"><path stroke="#323232" d="M.0,.0L.0,-94.8" fill="none" stroke-width="2"/><path stroke-linecap="round" stroke="#323232" d="M.0,-101.0L-4.2,-93.7C-3.0,-94.4,-1.5,-94.8,.0,-94.8C1.5,-94.8,3.0,-94.4,4.2,-93.7L.0,-101.0" fill="#323232" stroke-width="1"/></g><g transform="translate(1791.130000,719.544000)" id="shape117"><path stroke="#323232" d="M.0,.0L36.8,.0C36.8,-3.3,39.5,-6.0,42.8,-6.0C46.1,-6.0,48.8,-3.3,48.8,.0L590.9,.0C590.9,-3.3,593.6,-6.0,596.9,-6.0C600.2,-6.0,602.9,-3.3,602.9,.0L712.9,.0L712.9,181.1L726.6,181.1" fill="none" stroke-width="2"/><path stroke-linecap="round" stroke="#323232" d="M732.8,181.1L725.4,176.9C726.2,178.1,726.6,179.6,726.6,181.1C726.6,182.7,726.2,184.1,725.4,185.4L732.8,181.1" fill="#323232" stroke-width="1"/><rect height="32.0" width="155.7" x="222.4" fill="#ffffff" y="-16.0"/><text style="fill:#191919;font-family:Microsoft YaHei;font-size:18.00pt" xml:space="preserve"><tspan x="222.4" y="10.0">Get Test Data</tspan></text></g><path stroke="#4285f4" d="M.0,.0L2644.8,.0L2644.8,331.0L.0,331.0L.0,.0z" stroke-dasharray="6,4" transform="translate(65.220000,86.000000)" id="shape118" fill="none" stroke-width="2.666670083999634"/><g transform="translate(2311.500000,140.000000)" id="shape119"><path d="M.0,.0L313.0,.0L313.0,104.0L.0,104.0L.0,.0z" stroke="#323232" fill-rule="nonzero" fill="#ffffff" stroke-width="1"/><text style="fill:#191919;font-family:Microsoft YaHei;font-size:28.00pt" xml:space="preserve"><tspan x="22.0" y="67.5">Argo Workflow</tspan></text></g><g transform="translate(2356.743000,281.500000)" id="shape120"><path d="M.0,.0L267.8,.0L267.8,104.0L.0,104.0L.0,.0z" stroke="#323232" fill-rule="nonzero" fill="#ffffff" stroke-width="1"/><text style="fill:#191919;font-family:Microsoft YaHei;font-size:28.00pt" xml:space="preserve"><tspan x="27.5" y="67.5">Argo Events</tspan></text></g><g transform="translate(1703.545000,140.000000)" id="shape121"><path d="M.0,.0L225.8,.0L225.8,104.0L.0,104.0L.0,.0z" stroke="#323232" fill-rule="nonzero" fill="#ffffff" stroke-width="1"/><text style="fill:#191919;font-family:Microsoft YaHei;font-size:28.00pt" xml:space="preserve"><tspan x="37.3" y="67.5">Argo CD</tspan></text></g><g transform="translate(1654.465000,281.500000)" id="shape122"><path d="M.0,.0L225.8,.0L225.8,104.0L.0,104.0L.0,.0z" stroke="#323232" fill-rule="nonzero" fill="#ffffff" stroke-width="1"/><text style="fill:#191919;font-family:Microsoft YaHei;font-size:28.00pt" xml:space="preserve"><tspan x="16.4" y="67.5">NFS Server</tspan></text></g><g transform="translate(1379.310000,140.000000)" id="shape123"><path d="M.0,.0L282.5,.0L282.5,104.0L.0,104.0L.0,.0z" stroke="#323232" fill-rule="nonzero" fill="#ffffff" stroke-width="1"/><text style="fill:#191919;font-family:Microsoft YaHei;font-size:28.00pt" xml:space="preserve"><tspan x="19.7" y="67.5">Cert Manager</tspan></text></g><g transform="translate(1095.355000,281.500000)" id="shape124"><path d="M.0,.0L254.2,.0L254.2,104.0L.0,104.0L.0,.0z" stroke="#323232" fill-rule="nonzero" fill="#ffffff" stroke-width="1"/><text style="fill:#191919;font-family:Microsoft YaHei;font-size:28.00pt" xml:space="preserve"><tspan x="24.0" y="67.5">PostgreSQL</tspan></text></g><g transform="translate(756.648000,140.000000)" id="shape125"><path d="M.0,.0L193.5,.0L193.5,104.0L.0,104.0L.0,.0z" stroke="#323232" fill-rule="nonzero" fill="#ffffff" stroke-width="1"/><text style="fill:#191919;font-family:Microsoft YaHei;font-size:28.00pt" xml:space="preserve"><tspan x="34.5" y="67.5">Harbor</tspan></text></g><g transform="translate(808.514000,281.500000)" id="shape126"><path d="M.0,.0L231.3,.0L231.3,104.0L.0,104.0L.0,.0z" stroke="#323232" fill-rule="nonzero" fill="#ffffff" stroke-width="1"/><text style="fill:#191919;font-family:Microsoft YaHei;font-size:28.00pt" xml:space="preserve"><tspan x="24.2" y="67.5">Cloudflare</tspan></text></g><g transform="translate(511.070000,140.000000)" id="shape127"><path d="M.0,.0L193.5,.0L193.5,104.0L.0,104.0L.0,.0z" stroke="#323232" fill-rule="nonzero" fill="#ffffff" stroke-width="1"/><text style="fill:#191919;font-family:Microsoft YaHei;font-size:28.00pt" xml:space="preserve"><tspan x="33.7" y="67.5">GitHub</tspan></text></g><g transform="translate(387.250000,281.500000)" id="shape128"><path d="M.0,.0L335.5,.0L335.5,104.0L.0,104.0L.0,.0z" stroke="#323232" fill-rule="nonzero" fill="#ffffff" stroke-width="1"/><text style="fill:#191919;font-family:Microsoft YaHei;font-size:28.00pt" xml:space="preserve"><tspan x="25.0" y="67.5">Kubernetes 1.24</tspan></text></g><g transform="translate(119.383000,140.000000)" id="shape129"><path d="M.0,.0L313.0,.0L313.0,104.0L.0,104.0L.0,.0z" stroke="#323232" fill-rule="nonzero" fill="#ffffff" stroke-width="1"/><text style="fill:#191919;font-family:Microsoft YaHei;font-size:28.00pt" xml:space="preserve"><tspan x="67.0" y="67.5">openEuler</tspan></text></g><g transform="translate(118.468400,281.500000)" id="shape130"><path d="M.0,.0L198.5,.0L198.5,104.0L.0,104.0L.0,.0z" stroke="#323232" fill-rule="nonzero" fill="#ffffff" stroke-width="1"/><text style="fill:#191919;font-family:Microsoft YaHei;font-size:28.00pt" xml:space="preserve"><tspan x="61.8" y="67.5">GCP</tspan></text></g><g transform="translate(2017.500000,140.000000)" id="shape131"><path d="M.0,.0L193.5,.0L193.5,104.0L.0,104.0L.0,.0z" stroke="#323232" fill-rule="nonzero" fill="#ffffff" stroke-width="1"/><text style="fill:#191919;font-family:Microsoft YaHei;font-size:28.00pt" xml:space="preserve"><tspan x="49.7" y="67.5">Helm</tspan></text></g><g transform="translate(1406.161700,281.500000)" id="shape132"><path d="M.0,.0L173.2,.0L173.2,104.0L.0,104.0L.0,.0z" stroke="#323232" fill-rule="nonzero" fill="#ffffff" stroke-width="1"/><text style="fill:#191919;font-family:Microsoft YaHei;font-size:28.00pt" xml:space="preserve"><tspan x="26.5" y="67.5">Kaniko</tspan></text></g><g transform="translate(1963.881000,281.500000)" id="shape133"><path d="M.0,.0L330.4,.0L330.4,104.0L.0,104.0L.0,.0z" stroke="#323232" fill-rule="nonzero" fill="#ffffff" stroke-width="1"/><text style="fill:#191919;font-family:Microsoft YaHei;font-size:28.00pt" xml:space="preserve"><tspan x="53.2" y="67.5">Let's Encrypt</tspan></text></g><g transform="translate(1004.225000,140.000000)" id="shape134"><path d="M.0,.0L307.3,.0L307.3,104.0L.0,104.0L.0,.0z" stroke="#323232" fill-rule="nonzero" fill="#ffffff" stroke-width="1"/><text style="fill:#191919;font-family:Microsoft YaHei;font-size:28.00pt" xml:space="preserve"><tspan x="26.7" y="67.5">Kustomization</tspan></text></g><g transform="translate(1736.000000,670.000000)" id="shape135"><path stroke="#323232" d="M.0,.0L.0,-101.8" fill="none" stroke-width="2"/><path stroke-linecap="round" stroke="#323232" d="M.0,-108.0L-4.2,-100.7C-3.0,-101.4,-1.5,-101.8,.0,-101.8C1.5,-101.8,3.0,-101.4,4.2,-100.7L.0,-108.0" fill="#323232" stroke-width="1"/></g><g transform="translate(991.770800,719.544000)" id="shape136"><path stroke="#323232" d="M.0,.0L155.2,.0C155.2,-3.3,157.9,-6.0,161.2,-6.0C164.5,-6.0,167.2,-3.3,167.2,.0L615.0,.0L615.0,388.1L685.4,388.1" stroke-dasharray="11,5" fill="none" stroke-width="1"/><path stroke-linecap="round" stroke="#323232" d="M689.8,388.1L684.6,385.1C685.1,386.0,685.4,387.0,685.4,388.1C685.4,389.2,685.1,390.2,684.6,391.1L689.8,388.1" fill="#323232" stroke-width="1"/></g><path stroke="#4285f4" d="M.0,.0L186.1,.0L186.1,373.2L.0,373.2L.0,.0z" stroke-dasharray="6,4" transform="translate(2523.904600,446.411000)" id="shape137" fill="none" stroke-width="2.666670083999634"/><g transform="translate(2563.065800,454.960300)" id="group138"><path d="M108.3,44.3L85.8,5.0C84.0,2.0,80.8,.0,77.3,.0L32.3,.0C28.8,.0,25.6,2.0,23.8,5.0L1.3,44.2C-0.4,47.2,-0.4,50.9,1.3,54.0L23.8,93.4C25.5,96.5,28.7,98.5,32.3,98.6L77.3,98.6C80.8,98.5,84.0,96.5,85.8,93.4L108.3,54.2C110.0,51.1,110.0,47.3,108.3,44.3z" fill-rule="nonzero" id="shape139" fill="#4285f4"/><path d="M68.0,37.1L30.9,.0L28.3,5.8L22.5,.0L19.8,5.7L14.1,.0L12.7,6.9L7.6,7.8L6.6,12.3L.0,13.9L5.9,19.8L.0,22.4L5.9,28.2L.0,30.8L39.5,70.3L43.5,70.3C47.0,70.2,50.2,68.2,52.0,65.1L68.0,37.1z" transform="translate(33.805700,28.294900)" fill-rule="nonzero" id="shape140" fill="#3d7ce3"/><path d="M10.8,.0L1.0,.0C.5,.0,.0,.5,.0,1.0L.0,10.8C.0,11.4,.5,11.9,1.0,11.9L10.8,11.9C11.4,11.8,11.8,11.4,11.8,10.8L11.8,1.0C11.8,.5,11.3,.0,10.8,.0" transform="translate(48.891170,43.381350)" fill-rule="nonzero" id="shape141" fill="#ffffff"/><path d="M41.6,14.6C41.9,14.6,42.1,14.5,42.3,14.3C42.5,14.2,42.6,13.9,42.6,13.7L42.6,12.1C42.6,11.6,42.2,11.2,41.6,11.2L36.9,11.2L36.9,6.7C36.9,6.2,36.4,5.7,35.8,5.7L31.4,5.7L31.4,.9C31.4,.4,31.0,.0,30.4,.0L28.9,.0C28.4,.0,28.0,.4,28.0,.9L28.0,5.7L23.0,5.7L23.0,.9C23.0,.7,22.9,.4,22.7,.3C22.5,.1,22.3,.0,22.0,.0L20.5,.0C20.0,.0,19.6,.4,19.6,.9L19.6,5.7L14.6,5.7L14.6,.9C14.6,.4,14.2,.0,13.6,.0L12.1,.0C11.6,.0,11.2,.4,11.2,.9L11.2,5.7L6.7,5.7C6.2,5.7,5.7,6.2,5.7,6.7L5.7,11.2L.9,11.2C.4,11.2,.0,11.6,.0,12.1L.0,13.6C.0,14.1,.4,14.6,.9,14.6L5.7,14.6L5.7,19.6L.9,19.6C.4,19.6,.0,20.0,.0,20.5L.0,22.1C.0,22.3,.1,22.6,.3,22.7C.4,22.9,.7,23.0,.9,23.0L5.7,23.0L5.7,28.0L.9,28.0C.4,28.0,.0,28.5,.0,29.0L.0,30.5C.0,31.0,.4,31.4,.9,31.4L5.7,31.4L5.7,35.9C5.7,36.4,6.2,36.9,6.7,36.9L11.2,36.9L11.2,41.7C11.2,42.2,11.6,42.6,12.1,42.6L13.6,42.6C14.2,42.6,14.6,42.2,14.6,41.7L14.6,36.9L19.6,36.9L19.6,41.7C19.6,42.2,20.0,42.6,20.5,42.6L22.0,42.6C22.5,42.6,23.0,42.2,23.0,41.7L23.0,36.9L28.0,36.9L28.0,41.7C28.0,42.2,28.4,42.6,29.0,42.6L30.5,42.6C31.0,42.6,31.4,42.2,31.4,41.7L31.4,36.9L35.9,36.9C36.4,36.9,36.9,36.4,36.9,35.9L36.9,31.4L41.6,31.4C41.9,31.4,42.1,31.3,42.3,31.2C42.5,31.0,42.6,30.7,42.6,30.5L42.6,29.0C42.6,28.4,42.2,28.0,41.6,28.0L36.9,28.0L36.9,23.0L41.6,23.0C41.9,23.0,42.1,22.9,42.3,22.7C42.5,22.6,42.6,22.3,42.6,22.1L42.6,20.6C42.6,20.3,42.5,20.0,42.3,19.9C42.1,19.7,41.9,19.6,41.6,19.6L36.9,19.6L36.9,14.6L41.6,14.6zM33.4,33.5L9.2,33.5L9.2,9.2L33.4,9.2L33.4,33.5z" transform="translate(33.617300,28.003400)" fill-rule="nonzero" id="shape142" fill="#ffffff"/><text style="fill:#191919;font-family:Microsoft YaHei;font-size:18.00pt" xml:space="preserve"><tspan x="39.1" y="136.6">OS</tspan></text></g><g transform="translate(2523.904600,757.322100)" id="shape143"><path d="M.0,.0L186.1,.0L186.1,65.4L.0,65.4L.0,.0z" stroke="#323232" fill-rule="nonzero" fill="#ffffff" stroke-width="1"/><text style="fill:#191919;font-family:Microsoft YaHei;font-size:18.00pt" xml:space="preserve"><tspan x="22.6" y="43.0">Model Repo</tspan></text></g><g transform="translate(2563.065800,612.940300)" id="group144"><path d="M108.3,44.3L85.8,5.0C84.0,2.0,80.8,.0,77.3,.0L32.3,.0C28.8,.0,25.6,2.0,23.8,5.0L1.3,44.2C-0.4,47.2,-0.4,50.9,1.3,54.0L23.8,93.4C25.5,96.5,28.7,98.5,32.3,98.6L77.3,98.6C80.8,98.5,84.0,96.5,85.8,93.4L108.3,54.2C110.0,51.1,110.0,47.3,108.3,44.3z" fill-rule="nonzero" id="shape145" fill="#4285f4"/><path d="M68.0,37.1L30.9,.0L28.3,5.8L22.5,.0L19.8,5.7L14.1,.0L12.7,6.9L7.6,7.8L6.6,12.3L.0,13.9L5.9,19.8L.0,22.4L5.9,28.2L.0,30.8L39.5,70.3L43.5,70.3C47.0,70.2,50.2,68.2,52.0,65.1L68.0,37.1z" transform="translate(33.805700,28.294900)" fill-rule="nonzero" id="shape146" fill="#3d7ce3"/><path d="M10.8,.0L1.0,.0C.5,.0,.0,.5,.0,1.0L.0,10.8C.0,11.4,.5,11.9,1.0,11.9L10.8,11.9C11.4,11.8,11.8,11.4,11.8,10.8L11.8,1.0C11.8,.5,11.3,.0,10.8,.0" transform="translate(48.891170,43.381350)" fill-rule="nonzero" id="shape147" fill="#ffffff"/><path d="M41.6,14.6C41.9,14.6,42.1,14.5,42.3,14.3C42.5,14.2,42.6,13.9,42.6,13.7L42.6,12.1C42.6,11.6,42.2,11.2,41.6,11.2L36.9,11.2L36.9,6.7C36.9,6.2,36.4,5.7,35.8,5.7L31.4,5.7L31.4,.9C31.4,.4,31.0,.0,30.4,.0L28.9,.0C28.4,.0,28.0,.4,28.0,.9L28.0,5.7L23.0,5.7L23.0,.9C23.0,.7,22.9,.4,22.7,.3C22.5,.1,22.3,.0,22.0,.0L20.5,.0C20.0,.0,19.6,.4,19.6,.9L19.6,5.7L14.6,5.7L14.6,.9C14.6,.4,14.2,.0,13.6,.0L12.1,.0C11.6,.0,11.2,.4,11.2,.9L11.2,5.7L6.7,5.7C6.2,5.7,5.7,6.2,5.7,6.7L5.7,11.2L.9,11.2C.4,11.2,.0,11.6,.0,12.1L.0,13.6C.0,14.1,.4,14.6,.9,14.6L5.7,14.6L5.7,19.6L.9,19.6C.4,19.6,.0,20.0,.0,20.5L.0,22.1C.0,22.3,.1,22.6,.3,22.7C.4,22.9,.7,23.0,.9,23.0L5.7,23.0L5.7,28.0L.9,28.0C.4,28.0,.0,28.5,.0,29.0L.0,30.5C.0,31.0,.4,31.4,.9,31.4L5.7,31.4L5.7,35.9C5.7,36.4,6.2,36.9,6.7,36.9L11.2,36.9L11.2,41.7C11.2,42.2,11.6,42.6,12.1,42.6L13.6,42.6C14.2,42.6,14.6,42.2,14.6,41.7L14.6,36.9L19.6,36.9L19.6,41.7C19.6,42.2,20.0,42.6,20.5,42.6L22.0,42.6C22.5,42.6,23.0,42.2,23.0,41.7L23.0,36.9L28.0,36.9L28.0,41.7C28.0,42.2,28.4,42.6,29.0,42.6L30.5,42.6C31.0,42.6,31.4,42.2,31.4,41.7L31.4,36.9L35.9,36.9C36.4,36.9,36.9,36.4,36.9,35.9L36.9,31.4L41.6,31.4C41.9,31.4,42.1,31.3,42.3,31.2C42.5,31.0,42.6,30.7,42.6,30.5L42.6,29.0C42.6,28.4,42.2,28.0,41.6,28.0L36.9,28.0L36.9,23.0L41.6,23.0C41.9,23.0,42.1,22.9,42.3,22.7C42.5,22.6,42.6,22.3,42.6,22.1L42.6,20.6C42.6,20.3,42.5,20.0,42.3,19.9C42.1,19.7,41.9,19.6,41.6,19.6L36.9,19.6L36.9,14.6L41.6,14.6zM33.4,33.5L9.2,33.5L9.2,9.2L33.4,9.2L33.4,33.5z" transform="translate(33.617300,28.003400)" fill-rule="nonzero" id="shape148" fill="#ffffff"/><text style="fill:#191919;font-family:Microsoft YaHei;font-size:18.00pt" xml:space="preserve"><tspan x="22.8" y="136.6">Other</tspan></text></g><g transform="translate(1791.130000,513.344000)" id="shape149"><path stroke="#323232" d="M.0,.0L724.8,.0" fill="none" stroke-width="2"/><path stroke-linecap="round" stroke="#323232" d="M731.0,.0L723.7,-4.2C724.4,-3.0,724.8,-1.5,724.8,.0C724.8,1.5,724.4,3.0,723.7,4.2L731.0,.0" fill="#323232" stroke-width="1"/></g><path d="M.0,.0L622.5,.0L622.5,269.0L.0,269.0L.0,.0z" stroke="#000000" transform="translate(1853.456000,930.000000)" fill-rule="nonzero" id="shape150" fill="#ffffff" stroke-width="1"/><g transform="translate(1881.445800,1057.325300)" id="group151"><path d="M108.3,44.3L85.8,5.0C84.0,2.0,80.8,.0,77.3,.0L32.3,.0C28.8,.0,25.6,2.0,23.8,5.0L1.3,44.2C-0.4,47.2,-0.4,50.9,1.3,54.0L23.8,93.4C25.5,96.5,28.7,98.5,32.3,98.6L77.3,98.6C80.8,98.5,84.0,96.5,85.8,93.4L108.3,54.2C110.0,51.1,110.0,47.3,108.3,44.3z" fill-rule="nonzero" id="shape152" fill="#4285f4"/><path d="M68.0,37.1L30.9,.0L28.3,5.8L22.5,.0L19.8,5.7L14.1,.0L12.7,6.9L7.6,7.8L6.6,12.3L.0,13.9L5.9,19.8L.0,22.4L5.9,28.2L.0,30.8L39.5,70.3L43.5,70.3C47.0,70.2,50.2,68.2,52.0,65.1L68.0,37.1z" transform="translate(33.805700,28.294900)" fill-rule="nonzero" id="shape153" fill="#3d7ce3"/><path d="M10.8,.0L1.0,.0C.5,.0,.0,.5,.0,1.0L.0,10.8C.0,11.4,.5,11.9,1.0,11.9L10.8,11.9C11.4,11.8,11.8,11.4,11.8,10.8L11.8,1.0C11.8,.5,11.3,.0,10.8,.0" transform="translate(48.891170,43.381350)" fill-rule="nonzero" id="shape154" fill="#ffffff"/><path d="M41.6,14.6C41.9,14.6,42.1,14.5,42.3,14.3C42.5,14.2,42.6,13.9,42.6,13.7L42.6,12.1C42.6,11.6,42.2,11.2,41.6,11.2L36.9,11.2L36.9,6.7C36.9,6.2,36.4,5.7,35.8,5.7L31.4,5.7L31.4,.9C31.4,.4,31.0,.0,30.4,.0L28.9,.0C28.4,.0,28.0,.4,28.0,.9L28.0,5.7L23.0,5.7L23.0,.9C23.0,.7,22.9,.4,22.7,.3C22.5,.1,22.3,.0,22.0,.0L20.5,.0C20.0,.0,19.6,.4,19.6,.9L19.6,5.7L14.6,5.7L14.6,.9C14.6,.4,14.2,.0,13.6,.0L12.1,.0C11.6,.0,11.2,.4,11.2,.9L11.2,5.7L6.7,5.7C6.2,5.7,5.7,6.2,5.7,6.7L5.7,11.2L.9,11.2C.4,11.2,.0,11.6,.0,12.1L.0,13.6C.0,14.1,.4,14.6,.9,14.6L5.7,14.6L5.7,19.6L.9,19.6C.4,19.6,.0,20.0,.0,20.5L.0,22.1C.0,22.3,.1,22.6,.3,22.7C.4,22.9,.7,23.0,.9,23.0L5.7,23.0L5.7,28.0L.9,28.0C.4,28.0,.0,28.5,.0,29.0L.0,30.5C.0,31.0,.4,31.4,.9,31.4L5.7,31.4L5.7,35.9C5.7,36.4,6.2,36.9,6.7,36.9L11.2,36.9L11.2,41.7C11.2,42.2,11.6,42.6,12.1,42.6L13.6,42.6C14.2,42.6,14.6,42.2,14.6,41.7L14.6,36.9L19.6,36.9L19.6,41.7C19.6,42.2,20.0,42.6,20.5,42.6L22.0,42.6C22.5,42.6,23.0,42.2,23.0,41.7L23.0,36.9L28.0,36.9L28.0,41.7C28.0,42.2,28.4,42.6,29.0,42.6L30.5,42.6C31.0,42.6,31.4,42.2,31.4,41.7L31.4,36.9L35.9,36.9C36.4,36.9,36.9,36.4,36.9,35.9L36.9,31.4L41.6,31.4C41.9,31.4,42.1,31.3,42.3,31.2C42.5,31.0,42.6,30.7,42.6,30.5L42.6,29.0C42.6,28.4,42.2,28.0,41.6,28.0L36.9,28.0L36.9,23.0L41.6,23.0C41.9,23.0,42.1,22.9,42.3,22.7C42.5,22.6,42.6,22.3,42.6,22.1L42.6,20.6C42.6,20.3,42.5,20.0,42.3,19.9C42.1,19.7,41.9,19.6,41.6,19.6L36.9,19.6L36.9,14.6L41.6,14.6zM33.4,33.5L9.2,33.5L9.2,9.2L33.4,9.2L33.4,33.5z" transform="translate(33.617300,28.003400)" fill-rule="nonzero" id="shape155" fill="#ffffff"/><text style="fill:#191919;font-family:Microsoft YaHei;font-size:18.00pt" xml:space="preserve"><tspan x="-15.1" y="136.6">EventSource</tspan></text></g><g transform="translate(2108.225800,1056.325300)" id="group156"><path d="M108.3,44.3L85.8,5.0C84.0,2.0,80.8,.0,77.3,.0L32.3,.0C28.8,.0,25.6,2.0,23.8,5.0L1.3,44.2C-0.4,47.2,-0.4,50.9,1.3,54.0L23.8,93.4C25.5,96.5,28.7,98.5,32.3,98.6L77.3,98.6C80.8,98.5,84.0,96.5,85.8,93.4L108.3,54.2C110.0,51.1,110.0,47.3,108.3,44.3z" fill-rule="nonzero" id="shape157" fill="#4285f4"/><path d="M68.0,37.1L30.9,.0L28.3,5.8L22.5,.0L19.8,5.7L14.1,.0L12.7,6.9L7.6,7.8L6.6,12.3L.0,13.9L5.9,19.8L.0,22.4L5.9,28.2L.0,30.8L39.5,70.3L43.5,70.3C47.0,70.2,50.2,68.2,52.0,65.1L68.0,37.1z" transform="translate(33.805700,28.294900)" fill-rule="nonzero" id="shape158" fill="#3d7ce3"/><path d="M10.8,.0L1.0,.0C.5,.0,.0,.5,.0,1.0L.0,10.8C.0,11.4,.5,11.9,1.0,11.9L10.8,11.9C11.4,11.8,11.8,11.4,11.8,10.8L11.8,1.0C11.8,.5,11.3,.0,10.8,.0" transform="translate(48.891170,43.381350)" fill-rule="nonzero" id="shape159" fill="#ffffff"/><path d="M41.6,14.6C41.9,14.6,42.1,14.5,42.3,14.3C42.5,14.2,42.6,13.9,42.6,13.7L42.6,12.1C42.6,11.6,42.2,11.2,41.6,11.2L36.9,11.2L36.9,6.7C36.9,6.2,36.4,5.7,35.8,5.7L31.4,5.7L31.4,.9C31.4,.4,31.0,.0,30.4,.0L28.9,.0C28.4,.0,28.0,.4,28.0,.9L28.0,5.7L23.0,5.7L23.0,.9C23.0,.7,22.9,.4,22.7,.3C22.5,.1,22.3,.0,22.0,.0L20.5,.0C20.0,.0,19.6,.4,19.6,.9L19.6,5.7L14.6,5.7L14.6,.9C14.6,.4,14.2,.0,13.6,.0L12.1,.0C11.6,.0,11.2,.4,11.2,.9L11.2,5.7L6.7,5.7C6.2,5.7,5.7,6.2,5.7,6.7L5.7,11.2L.9,11.2C.4,11.2,.0,11.6,.0,12.1L.0,13.6C.0,14.1,.4,14.6,.9,14.6L5.7,14.6L5.7,19.6L.9,19.6C.4,19.6,.0,20.0,.0,20.5L.0,22.1C.0,22.3,.1,22.6,.3,22.7C.4,22.9,.7,23.0,.9,23.0L5.7,23.0L5.7,28.0L.9,28.0C.4,28.0,.0,28.5,.0,29.0L.0,30.5C.0,31.0,.4,31.4,.9,31.4L5.7,31.4L5.7,35.9C5.7,36.4,6.2,36.9,6.7,36.9L11.2,36.9L11.2,41.7C11.2,42.2,11.6,42.6,12.1,42.6L13.6,42.6C14.2,42.6,14.6,42.2,14.6,41.7L14.6,36.9L19.6,36.9L19.6,41.7C19.6,42.2,20.0,42.6,20.5,42.6L22.0,42.6C22.5,42.6,23.0,42.2,23.0,41.7L23.0,36.9L28.0,36.9L28.0,41.7C28.0,42.2,28.4,42.6,29.0,42.6L30.5,42.6C31.0,42.6,31.4,42.2,31.4,41.7L31.4,36.9L35.9,36.9C36.4,36.9,36.9,36.4,36.9,35.9L36.9,31.4L41.6,31.4C41.9,31.4,42.1,31.3,42.3,31.2C42.5,31.0,42.6,30.7,42.6,30.5L42.6,29.0C42.6,28.4,42.2,28.0,41.6,28.0L36.9,28.0L36.9,23.0L41.6,23.0C41.9,23.0,42.1,22.9,42.3,22.7C42.5,22.6,42.6,22.3,42.6,22.1L42.6,20.6C42.6,20.3,42.5,20.0,42.3,19.9C42.1,19.7,41.9,19.6,41.6,19.6L36.9,19.6L36.9,14.6L41.6,14.6zM33.4,33.5L9.2,33.5L9.2,9.2L33.4,9.2L33.4,33.5z" transform="translate(33.617300,28.003400)" fill-rule="nonzero" id="shape160" fill="#ffffff"/><text style="fill:#191919;font-family:Microsoft YaHei;font-size:18.00pt" xml:space="preserve"><tspan x="16.9" y="136.6">Sensor</tspan></text></g><g transform="translate(1881.451000,945.795400)" id="shape161"><path d="M.0,.0L336.4,.0L336.4,62.3L.0,62.3L.0,.0z" stroke="#323232" fill-rule="nonzero" fill="#ffffff" stroke-width="1"/><text style="fill:#191919;font-family:Microsoft YaHei;font-size:18.00pt" xml:space="preserve"><tspan x="112.6" y="41.2">Event Bus</tspan></text></g><g transform="translate(1936.240000,1057.325300)" id="shape162"><path stroke="#323232" d="M.0,.0L.0,-43.0" fill="none" stroke-width="2"/><path stroke-linecap="round" stroke="#323232" d="M.0,-49.2L-4.2,-41.9C-3.0,-42.6,-1.5,-43.0,.0,-43.0C1.6,-43.0,3.0,-42.6,4.2,-41.9L.0,-49.2" fill="#323232" stroke-width="1"/><rect height="32.0" width="132.7" x="-65.3" fill="#ffffff" y="-38.9"/><text style="fill:#191919;font-family:Microsoft YaHei;font-size:18.00pt" xml:space="preserve"><tspan x="-65.3" y="-12.9">Write Event</tspan></text></g><g transform="translate(2163.020000,1056.325300)" id="shape163"><path stroke="#323232" d="M.0,.0L-0.0,-42.0" fill="none" stroke-width="2"/><path stroke-linecap="round" stroke="#323232" d="M-0.0,-48.2L-4.2,-40.9C-3.0,-41.6,-1.5,-42.0,-0.0,-42.0C1.5,-42.0,3.0,-41.6,4.2,-40.9L-0.0,-48.2" fill="#323232" stroke-width="1"/><rect height="32.0" width="128.1" x="-63.0" fill="#ffffff" y="-37.8"/><text style="fill:#191919;font-family:Microsoft YaHei;font-size:18.00pt" xml:space="preserve"><tspan x="-63.0" y="-11.8">Read Event</tspan></text></g><g transform="translate(2334.995800,757.322300)" id="group164"><path d="M108.3,44.3L85.8,5.0C84.0,2.0,80.8,.0,77.3,.0L32.3,.0C28.8,.0,25.6,2.0,23.8,5.0L1.3,44.2C-0.4,47.2,-0.4,50.9,1.3,54.0L23.8,93.4C25.5,96.5,28.7,98.5,32.3,98.6L77.3,98.6C80.8,98.5,84.0,96.5,85.8,93.4L108.3,54.2C110.0,51.1,110.0,47.3,108.3,44.3z" fill-rule="nonzero" id="shape165" fill="#4285f4"/><path d="M68.0,37.1L30.9,.0L28.3,5.8L22.5,.0L19.8,5.7L14.1,.0L12.7,6.9L7.6,7.8L6.6,12.3L.0,13.9L5.9,19.8L.0,22.4L5.9,28.2L.0,30.8L39.5,70.3L43.5,70.3C47.0,70.2,50.2,68.2,52.0,65.1L68.0,37.1z" transform="translate(33.805700,28.294900)" fill-rule="nonzero" id="shape166" fill="#3d7ce3"/><path d="M10.8,.0L1.0,.0C.5,.0,.0,.5,.0,1.0L.0,10.8C.0,11.4,.5,11.9,1.0,11.9L10.8,11.9C11.4,11.8,11.8,11.4,11.8,10.8L11.8,1.0C11.8,.5,11.3,.0,10.8,.0" transform="translate(48.891170,43.381350)" fill-rule="nonzero" id="shape167" fill="#ffffff"/><path d="M41.6,14.6C41.9,14.6,42.1,14.5,42.3,14.3C42.5,14.2,42.6,13.9,42.6,13.7L42.6,12.1C42.6,11.6,42.2,11.2,41.6,11.2L36.9,11.2L36.9,6.7C36.9,6.2,36.4,5.7,35.8,5.7L31.4,5.7L31.4,.9C31.4,.4,31.0,.0,30.4,.0L28.9,.0C28.4,.0,28.0,.4,28.0,.9L28.0,5.7L23.0,5.7L23.0,.9C23.0,.7,22.9,.4,22.7,.3C22.5,.1,22.3,.0,22.0,.0L20.5,.0C20.0,.0,19.6,.4,19.6,.9L19.6,5.7L14.6,5.7L14.6,.9C14.6,.4,14.2,.0,13.6,.0L12.1,.0C11.6,.0,11.2,.4,11.2,.9L11.2,5.7L6.7,5.7C6.2,5.7,5.7,6.2,5.7,6.7L5.7,11.2L.9,11.2C.4,11.2,.0,11.6,.0,12.1L.0,13.6C.0,14.1,.4,14.6,.9,14.6L5.7,14.6L5.7,19.6L.9,19.6C.4,19.6,.0,20.0,.0,20.5L.0,22.1C.0,22.3,.1,22.6,.3,22.7C.4,22.9,.7,23.0,.9,23.0L5.7,23.0L5.7,28.0L.9,28.0C.4,28.0,.0,28.5,.0,29.0L.0,30.5C.0,31.0,.4,31.4,.9,31.4L5.7,31.4L5.7,35.9C5.7,36.4,6.2,36.9,6.7,36.9L11.2,36.9L11.2,41.7C11.2,42.2,11.6,42.6,12.1,42.6L13.6,42.6C14.2,42.6,14.6,42.2,14.6,41.7L14.6,36.9L19.6,36.9L19.6,41.7C19.6,42.2,20.0,42.6,20.5,42.6L22.0,42.6C22.5,42.6,23.0,42.2,23.0,41.7L23.0,36.9L28.0,36.9L28.0,41.7C28.0,42.2,28.4,42.6,29.0,42.6L30.5,42.6C31.0,42.6,31.4,42.2,31.4,41.7L31.4,36.9L35.9,36.9C36.4,36.9,36.9,36.4,36.9,35.9L36.9,31.4L41.6,31.4C41.9,31.4,42.1,31.3,42.3,31.2C42.5,31.0,42.6,30.7,42.6,30.5L42.6,29.0C42.6,28.4,42.2,28.0,41.6,28.0L36.9,28.0L36.9,23.0L41.6,23.0C41.9,23.0,42.1,22.9,42.3,22.7C42.5,22.6,42.6,22.3,42.6,22.1L42.6,20.6C42.6,20.3,42.5,20.0,42.3,19.9C42.1,19.7,41.9,19.6,41.6,19.6L36.9,19.6L36.9,14.6L41.6,14.6zM33.4,33.5L9.2,33.5L9.2,9.2L33.4,9.2L33.4,33.5z" transform="translate(33.617300,28.003400)" fill-rule="nonzero" id="shape168" fill="#ffffff"/><text style="fill:#191919;font-family:Microsoft YaHei;font-size:18.00pt" xml:space="preserve"><tspan x="-20.3" y="136.6">CD Workflow</tspan></text></g><g transform="translate(2217.813800,1105.640000)" id="shape169"><path stroke="#323232" d="M.0,.0L89.0,.0L89.0,-299.0L110.8,-299.0" fill="none" stroke-width="2"/><path stroke-linecap="round" stroke="#323232" d="M117.0,-299.0L109.7,-303.2C110.4,-302.0,110.8,-300.5,110.8,-299.0C110.8,-297.5,110.4,-296.0,109.7,-294.8L117.0,-299.0" fill="#323232" stroke-width="1"/><rect height="32.0" width="74.6" x="52.7" fill="#ffffff" y="-118.5"/><text style="fill:#191919;font-family:Microsoft YaHei;font-size:18.00pt" xml:space="preserve"><tspan x="52.7" y="-92.5">Create</tspan></text></g><g transform="translate(2523.904600,544.196736)" id="shape170"><path stroke="#323232" d="M.0,.0L-690.0,.0L-690.0,562.4L-648.7,562.4" fill="none" stroke-width="2"/><path stroke-linecap="round" stroke="#323232" d="M-642.5,562.4L-649.8,558.2C-649.1,559.4,-648.7,560.9,-648.7,562.4C-648.7,564.0,-649.1,565.4,-649.8,566.7L-642.5,562.4" fill="#323232" stroke-width="1"/></g><g transform="translate(2334.995800,1056.325300)" id="group171"><path d="M108.3,44.3L85.8,5.0C84.0,2.0,80.8,.0,77.3,.0L32.3,.0C28.8,.0,25.6,2.0,23.8,5.0L1.3,44.2C-0.4,47.2,-0.4,50.9,1.3,54.0L23.8,93.4C25.5,96.5,28.7,98.5,32.3,98.6L77.3,98.6C80.8,98.5,84.0,96.5,85.8,93.4L108.3,54.2C110.0,51.1,110.0,47.3,108.3,44.3z" fill-rule="nonzero" id="shape172" fill="#4285f4"/><path d="M68.0,37.1L30.9,.0L28.3,5.8L22.5,.0L19.8,5.7L14.1,.0L12.7,6.9L7.6,7.8L6.6,12.3L.0,13.9L5.9,19.8L.0,22.4L5.9,28.2L.0,30.8L39.5,70.3L43.5,70.3C47.0,70.2,50.2,68.2,52.0,65.1L68.0,37.1z" transform="translate(33.805700,28.294900)" fill-rule="nonzero" id="shape173" fill="#3d7ce3"/><path d="M10.8,.0L1.0,.0C.5,.0,.0,.5,.0,1.0L.0,10.8C.0,11.4,.5,11.9,1.0,11.9L10.8,11.9C11.4,11.8,11.8,11.4,11.8,10.8L11.8,1.0C11.8,.5,11.3,.0,10.8,.0" transform="translate(48.891170,43.381350)" fill-rule="nonzero" id="shape174" fill="#ffffff"/><path d="M41.6,14.6C41.9,14.6,42.1,14.5,42.3,14.3C42.5,14.2,42.6,13.9,42.6,13.7L42.6,12.1C42.6,11.6,42.2,11.2,41.6,11.2L36.9,11.2L36.9,6.7C36.9,6.2,36.4,5.7,35.8,5.7L31.4,5.7L31.4,.9C31.4,.4,31.0,.0,30.4,.0L28.9,.0C28.4,.0,28.0,.4,28.0,.9L28.0,5.7L23.0,5.7L23.0,.9C23.0,.7,22.9,.4,22.7,.3C22.5,.1,22.3,.0,22.0,.0L20.5,.0C20.0,.0,19.6,.4,19.6,.9L19.6,5.7L14.6,5.7L14.6,.9C14.6,.4,14.2,.0,13.6,.0L12.1,.0C11.6,.0,11.2,.4,11.2,.9L11.2,5.7L6.7,5.7C6.2,5.7,5.7,6.2,5.7,6.7L5.7,11.2L.9,11.2C.4,11.2,.0,11.6,.0,12.1L.0,13.6C.0,14.1,.4,14.6,.9,14.6L5.7,14.6L5.7,19.6L.9,19.6C.4,19.6,.0,20.0,.0,20.5L.0,22.1C.0,22.3,.1,22.6,.3,22.7C.4,22.9,.7,23.0,.9,23.0L5.7,23.0L5.7,28.0L.9,28.0C.4,28.0,.0,28.5,.0,29.0L.0,30.5C.0,31.0,.4,31.4,.9,31.4L5.7,31.4L5.7,35.9C5.7,36.4,6.2,36.9,6.7,36.9L11.2,36.9L11.2,41.7C11.2,42.2,11.6,42.6,12.1,42.6L13.6,42.6C14.2,42.6,14.6,42.2,14.6,41.7L14.6,36.9L19.6,36.9L19.6,41.7C19.6,42.2,20.0,42.6,20.5,42.6L22.0,42.6C22.5,42.6,23.0,42.2,23.0,41.7L23.0,36.9L28.0,36.9L28.0,41.7C28.0,42.2,28.4,42.6,29.0,42.6L30.5,42.6C31.0,42.6,31.4,42.2,31.4,41.7L31.4,36.9L35.9,36.9C36.4,36.9,36.9,36.4,36.9,35.9L36.9,31.4L41.6,31.4C41.9,31.4,42.1,31.3,42.3,31.2C42.5,31.0,42.6,30.7,42.6,30.5L42.6,29.0C42.6,28.4,42.2,28.0,41.6,28.0L36.9,28.0L36.9,23.0L41.6,23.0C41.9,23.0,42.1,22.9,42.3,22.7C42.5,22.6,42.6,22.3,42.6,22.1L42.6,20.6C42.6,20.3,42.5,20.0,42.3,19.9C42.1,19.7,41.9,19.6,41.6,19.6L36.9,19.6L36.9,14.6L41.6,14.6zM33.4,33.5L9.2,33.5L9.2,9.2L33.4,9.2L33.4,33.5z" transform="translate(33.617300,28.003400)" fill-rule="nonzero" id="shape175" fill="#ffffff"/><text style="fill:#000000;font-family:Microsoft YaHei;font-size:18.00pt" xml:space="preserve"><tspan x="-29.0" y="136.6">Pod 1 模型部署</tspan></text></g><g transform="translate(2389.790000,855.951800)" id="shape176"><path stroke="#323232" d="M.0,.0L.0,194.8" fill="none" stroke-width="2"/><path stroke-linecap="round" stroke="#323232" d="M.0,201.0L4.2,193.7C3.0,194.4,1.5,194.8,.0,194.8C-1.5,194.8,-3.0,194.4,-4.2,193.7L.0,201.0" fill="#323232" stroke-width="1"/></g><g transform="translate(2363.790000,1369.000000)" id="group177"><path d="M51.5,55.6C51.2,51.7,50.3,43.5,49.6,39.8C48.7,35.9,47.7,32.6,43.5,30.5C40.0,28.9,38.3,28.3,36.8,28.3C36.2,28.3,35.6,28.4,35.1,28.6C35.0,28.0,34.8,27.5,34.7,27.1C37.9,24.2,39.8,20.0,39.8,15.2C39.8,6.9,33.6,.0,25.8,.0C18.1,.0,11.9,6.9,11.9,15.2C11.9,19.9,13.7,23.9,16.7,26.8C16.4,27.4,16.3,27.8,16.1,28.4C15.8,28.3,15.4,28.3,14.9,28.3C13.4,28.3,11.6,28.9,8.2,30.5C4.4,32.4,3.0,35.1,2.1,39.8C1.4,43.5,.5,51.6,.2,55.6L.0,58.0L52.0,58.0L51.5,55.6z" fill-rule="nonzero" id="shape178" fill="#ffffff"/><path d="M.0,53.5C.3,49.6,1.2,41.6,2.0,38.0C2.9,33.9,3.8,31.7,6.8,30.2C9.9,28.7,11.4,28.1,12.5,28.1C13.4,28.1,14.0,28.6,14.6,29.1C14.7,29.1,14.7,29.3,14.9,29.4C17.8,32.0,20.7,32.6,23.6,32.6C26.5,32.6,29.3,32.0,32.2,29.4C32.4,29.3,32.4,29.3,32.5,29.1C33.1,28.6,33.8,28.1,34.7,28.1C35.7,28.1,37.4,28.7,40.3,30.2C43.3,31.7,44.2,33.9,45.2,38.0C45.9,41.6,46.8,49.6,47.1,53.5L.0,53.5zM23.6,26.0C17.0,26.0,11.9,20.2,11.9,13.0C11.9,5.8,17.2,.0,23.6,.0C30.1,.0,35.3,5.8,35.3,13.0C35.3,20.2,30.1,26.0,23.6,26.0z" transform="translate(2.128600,2.242300)" fill-rule="nonzero" id="shape179" fill="#515150"/><text style="fill:#191919;font-family:Microsoft YaHei;font-size:18.00pt" xml:space="preserve"><tspan x="1.1" y="80.0">User</tspan></text></g><g transform="translate(2389.790000,1369.000000)" id="shape180"><path stroke="#323232" d="M.0,.0L.0,-207.8" fill="none" stroke-width="2"/><path stroke-linecap="round" stroke="#323232" d="M.0,-214.0L-4.2,-206.7C-3.0,-207.4,-1.5,-207.8,.0,-207.8C1.5,-207.8,3.0,-207.4,4.2,-206.7L.0,-214.0" fill="#323232" stroke-width="1"/></g><g transform="translate(1736.000000,670.000000)" id="shape181"><path stroke="#323232" d="M.0,.0L.0,-28.0L91.9,-28.0C91.9,-31.3,94.6,-34.0,97.9,-34.0C101.2,-34.0,103.9,-31.3,103.9,-28.0L652.0,-28.0L652.0,80.8" stroke-dasharray="11,5" fill="none" stroke-width="2"/><path stroke-linecap="round" stroke="#323232" d="M652.0,87.0L656.2,79.7C655.0,80.4,653.5,80.8,652.0,80.8C650.5,80.8,649.0,80.4,647.8,79.7L652.0,87.0" fill="#323232" stroke-width="1"/></g></g></svg>